<svg xmlns="http://www.w3.org/2000/svg" class="rankchart gov" viewBox="0 0 640 293" role="img" aria-label="Job ads in the AI governance and compliance band, 2018 to 2026"><style>:root{--c1:#0072b2;--c2:#d55e00;--c3:#009e73;--c4:#cc79a7;--ink:#161d2b}.rankchart{font-family:ui-monospace,Menlo,monospace}svg{background:#ffffff}.grid,.rowguide{stroke:#e7e4dd}.rowguide{opacity:.6}.meanline{stroke:#8a8a8a;stroke-dasharray:3 3}.meanlab,.tick{fill:#6d6a63;font-size:9px}.dname{fill:#3f3d39;font-size:10px}.dname.se{fill:#0072b2;font-weight:700}.dot{fill:#9a9a9a}.dot.se{fill:#0072b2}.bar{fill:#9a9a9a}.bar.se{fill:#0072b2}.dval{fill:#6d6a63;font-size:9.5px}.dval.se{fill:#0072b2;font-weight:700}.ddelta{fill:#6d6a63;font-size:8.5px}.trendarea{fill:#0072b2;opacity:.08}.trendline,.trenddash{fill:none;stroke:#0072b2;stroke-width:2}.trenddash{stroke-dasharray:4 3}.trenddot{fill:#0072b2}.trendval{fill:#0072b2;font-size:11px;font-weight:700}.sqband{fill:#0072b2;opacity:.10}.sqlo{fill:none;stroke:#d55e00;stroke-width:2}.sqhi{fill:none;stroke:#0072b2;stroke-width:2.6}.sqdot.lo{fill:#d55e00}.sqdot.hi{fill:#0072b2}.sqval{font-size:11px;font-weight:700}.sqval.lo{fill:#d55e00}.sqval.hi{fill:#0072b2}.dumb{display:block}.dbtrack{stroke:#d9d5cd;stroke-width:3}.dblo{fill:#d55e00}.dbhi{fill:#0072b2}.figttl{fill:#161d2b;font-size:12px;font-weight:700}.figsrc{fill:#6d6a63;font-size:8.5px}</style><line class="grid" x1="52" y1="214.0" x2="560" y2="214.0"/><text class="tick" x="45" y="217.5" text-anchor="end">0</text><line class="grid" x1="52" y1="162.1" x2="560" y2="162.1"/><text class="tick" x="45" y="165.6" text-anchor="end">50</text><line class="grid" x1="52" y1="110.2" x2="560" y2="110.2"/><text class="tick" x="45" y="113.7" text-anchor="end">100</text><line class="grid" x1="52" y1="58.3" x2="560" y2="58.3"/><text class="tick" x="45" y="61.8" text-anchor="end">150</text><rect x="62.7" y="214.0" width="35.0" height="0.0" fill="var(--c1)"/><text class="tick" x="80.2" y="209.0" text-anchor="middle">0</text><text class="tick" x="80.2" y="248" text-anchor="middle">2018</text><rect x="119.2" y="211.9" width="35.0" height="2.1" fill="var(--c1)"/><text class="tick" x="136.7" y="206.9" text-anchor="middle">2</text><text class="tick" x="136.7" y="248" text-anchor="middle">2019</text><rect x="175.6" y="206.7" width="35.0" height="7.3" fill="var(--c1)"/><text class="tick" x="193.1" y="201.7" text-anchor="middle">7</text><text class="tick" x="193.1" y="248" text-anchor="middle">2020</text><rect x="232.1" y="205.7" width="35.0" height="8.3" fill="var(--c1)"/><text class="tick" x="249.6" y="200.7" text-anchor="middle">8</text><text class="tick" x="249.6" y="248" text-anchor="middle">2021</text><rect x="288.5" y="202.6" width="35.0" height="11.4" fill="var(--c1)"/><text class="tick" x="306.0" y="197.6" text-anchor="middle">11</text><text class="tick" x="306.0" y="248" text-anchor="middle">2022</text><rect x="344.9" y="194.3" width="35.0" height="19.7" fill="var(--c1)"/><text class="tick" x="362.4" y="189.3" text-anchor="middle">19</text><text class="tick" x="362.4" y="248" text-anchor="middle">2023</text><rect x="401.4" y="155.9" width="35.0" height="58.1" fill="var(--c1)"/><text class="tick" x="418.9" y="150.9" text-anchor="middle">56</text><text class="tick" x="418.9" y="248" text-anchor="middle">2024</text><rect x="457.8" y="52.1" width="35.0" height="161.9" fill="var(--c1)"/><text class="tick" x="475.3" y="47.1" text-anchor="middle">156</text><text class="tick" x="475.3" y="248" text-anchor="middle">2025</text><rect x="514.3" y="22.0" width="35.0" height="192.0" fill="var(--c1)" opacity="0.55"/><text class="tick" x="531.8" y="17.0" text-anchor="middle">185</text><text class="tick" x="531.8" y="248" text-anchor="middle">2026*</text><text class="tick" x="531.8" y="16.0" text-anchor="middle" style="font-size:8.5px">part-year (H1)</text><text class="figttl" x="8" y="274">Ads mentioning AI-governance language, Sweden</text><text class="figsrc" x="8" y="287">JobTech historical job ads (CC0) · distinct advertisements · AI-Econ Lab</text></svg>