<svg xmlns="http://www.w3.org/2000/svg" class="rankchart trend" viewBox="0 0 640 333" role="img" aria-label="AI in demand, share of Swedish job ads, 2006 to 2026"><style>:root{--c1:#0072b2;--c2:#d55e00;--c3:#009e73;--c4:#cc79a7;--ink:#161d2b}.rankchart{font-family:ui-monospace,Menlo,monospace}svg{background:#ffffff}.grid,.rowguide{stroke:#e7e4dd}.rowguide{opacity:.6}.meanline{stroke:#8a8a8a;stroke-dasharray:3 3}.meanlab,.tick{fill:#6d6a63;font-size:9px}.dname{fill:#3f3d39;font-size:10px}.dname.se{fill:#0072b2;font-weight:700}.dot{fill:#9a9a9a}.dot.se{fill:#0072b2}.bar{fill:#9a9a9a}.bar.se{fill:#0072b2}.dval{fill:#6d6a63;font-size:9.5px}.dval.se{fill:#0072b2;font-weight:700}.ddelta{fill:#6d6a63;font-size:8.5px}.trendarea{fill:#0072b2;opacity:.08}.trendline,.trenddash{fill:none;stroke:#0072b2;stroke-width:2}.trenddash{stroke-dasharray:4 3}.trenddot{fill:#0072b2}.trendval{fill:#0072b2;font-size:11px;font-weight:700}.trendcov{fill:#6d6a63;font-size:9px}.sqband{fill:#0072b2;opacity:.10}.sqlo{fill:none;stroke:#009e73;stroke-width:2}.sqhi{fill:none;stroke:#0072b2;stroke-width:2.6}.sqdot.lo{fill:#009e73}.sqdot.hi{fill:#0072b2}.sqval{font-size:11px;font-weight:700}.sqval.lo{fill:#009e73}.sqval.hi{fill:#0072b2}.dumb{display:block}.dbtrack{stroke:#d9d5cd;stroke-width:3}.dblo{fill:#009e73}.dbhi{fill:#0072b2}.figttl{fill:#161d2b;font-size:12px;font-weight:700}.figsrc{fill:#6d6a63;font-size:8.5px}</style><line class="grid" x1="46" y1="262.0" x2="606" y2="262.0"/><text class="tick" x="40" y="265.5" text-anchor="end">0%</text><line class="grid" x1="46" y1="202.0" x2="606" y2="202.0"/><text class="tick" x="40" y="205.5" text-anchor="end">0.5%</text><line class="grid" x1="46" y1="142.0" x2="606" y2="142.0"/><text class="tick" x="40" y="145.5" text-anchor="end">1%</text><line class="grid" x1="46" y1="82.0" x2="606" y2="82.0"/><text class="tick" x="40" y="85.5" text-anchor="end">1.5%</text><line class="grid" x1="46" y1="22.0" x2="606" y2="22.0"/><text class="tick" x="40" y="25.5" text-anchor="end">2%</text><text class="tick" x="74.0" y="292" text-anchor="middle">2007</text><text class="tick" x="158.0" y="292" text-anchor="middle">2010</text><text class="tick" x="242.0" y="292" text-anchor="middle">2013</text><text class="tick" x="326.0" y="292" text-anchor="middle">2016</text><text class="tick" x="410.0" y="292" text-anchor="middle">2019</text><text class="tick" x="494.0" y="292" text-anchor="middle">2022</text><text class="tick" x="578.0" y="292" text-anchor="middle">2025</text><text class="tick" x="606.0" y="292" text-anchor="middle">2026</text><polygon class="trendarea" points="46.0,262.0 46.0,258.5 74.0,258.5 102.0,258.5 130.0,257.0 158.0,256.5 186.0,253.7 214.0,254.4 242.0,255.0 270.0,252.9 298.0,249.3 326.0,242.3 354.0,232.7 382.0,208.2 410.0,176.0 438.0,170.9 466.0,161.6 494.0,163.4 522.0,166.8 550.0,138.0 578.0,114.3 578.0,262.0"/><polyline class="trendline" points="46.0,258.5 74.0,258.5 102.0,258.5 130.0,257.0 158.0,256.5 186.0,253.7 214.0,254.4 242.0,255.0 270.0,252.9 298.0,249.3 326.0,242.3 354.0,232.7 382.0,208.2 410.0,176.0 438.0,170.9 466.0,161.6 494.0,163.4 522.0,166.8 550.0,138.0 578.0,114.3"/><polyline class="trenddash" points="578.0,114.3 606.0,85.2"/><polyline points="46.0,260.4 74.0,260.3 102.0,260.4 130.0,260.0 158.0,259.6 186.0,258.8 214.0,259.5 242.0,259.6 270.0,258.5 298.0,256.6 326.0,254.3 354.0,248.6 382.0,236.6 410.0,225.4 438.0,221.2 466.0,219.2 494.0,220.1 522.0,219.3 550.0,207.3 578.0,196.7" fill="none" stroke="var(--c2)" stroke-width="2"/><polyline points="578.0,196.7 606.0,190.6" fill="none" stroke="var(--c2)" stroke-width="2" stroke-dasharray="4 3"/><polyline points="46.0,258.5 74.0,258.6 102.0,258.6 130.0,257.1 158.0,256.6 186.0,253.8 214.0,254.6 242.0,255.2 270.0,253.0 298.0,249.4 326.0,242.6 354.0,233.2 382.0,209.7 410.0,178.6 438.0,174.3 466.0,166.5 494.0,169.1 522.0,173.1 550.0,148.5 578.0,135.2" fill="none" stroke="var(--muted)" stroke-width="1.4"/><polyline points="578.0,135.2 606.0,118.1" fill="none" stroke="var(--muted)" stroke-width="1.4" stroke-dasharray="4 3"/><circle class="trenddot" cx="606.0" cy="85.2" r="4"/><text class="trendval" x="600.0" y="77.2" text-anchor="end">Ceiling (broadest measure) 1.47%</text><text class="figttl" x="8" y="314">AI demand in Swedish job ads, floor to ceiling, 2006 onwards</text><text class="figsrc" x="8" y="327">JobTech / Platsbanken job ads (CC0) · frozen v1.6 · distinct advertisements · AI-Econ Lab</text></svg>