<svg xmlns="http://www.w3.org/2000/svg" class="rankchart trend" viewBox="0 0 640 300" role="img" aria-label="AI in demand, share of Swedish job ads, 2006 to 2025"><style>.rankchart{font-family:ui-monospace,Menlo,monospace}svg{background:#ffffff}.grid,.rowguide{stroke:#e7e4dd}.rowguide{opacity:.6}.meanline{stroke:#8a8a8a;stroke-dasharray:3 3}.meanlab,.tick{fill:#6d6a63;font-size:9px}.dname{fill:#3f3d39;font-size:10px}.dname.se{fill:#0072b2;font-weight:700}.dot{fill:#9a9a9a}.dot.se{fill:#0072b2}.bar{fill:#9a9a9a}.bar.se{fill:#0072b2}.dval{fill:#6d6a63;font-size:9.5px}.dval.se{fill:#0072b2;font-weight:700}.ddelta{fill:#6d6a63;font-size:8.5px}.trendarea{fill:#0072b2;opacity:.08}.trendline,.trenddash{fill:none;stroke:#0072b2;stroke-width:2}.trenddash{stroke-dasharray:4 3}.trenddot{fill:#0072b2}.trendval{fill:#0072b2;font-size:11px;font-weight:700}.sqband{fill:#0072b2;opacity:.10}.sqlo{fill:none;stroke:#9a9a9a;stroke-width:2}.sqhi{fill:none;stroke:#0072b2;stroke-width:2.6}.sqdot.lo{fill:#9a9a9a}.sqdot.hi{fill:#0072b2}.sqval{font-size:11px;font-weight:700}.sqval.lo{fill:#9a9a9a}.sqval.hi{fill:#0072b2}.dumb{display:block}.dbtrack{stroke:#d9d5cd;stroke-width:3}.dblo{fill:#9a9a9a}.dbhi{fill:#0072b2}</style><line class="grid" x1="46" y1="262.0" x2="606" y2="262.0"/><text class="tick" x="40" y="265.5" text-anchor="end">0%</text><line class="grid" x1="46" y1="207.5" x2="606" y2="207.5"/><text class="tick" x="40" y="211.0" text-anchor="end">0.5%</text><line class="grid" x1="46" y1="152.9" x2="606" y2="152.9"/><text class="tick" x="40" y="156.4" text-anchor="end">1%</text><line class="grid" x1="46" y1="98.4" x2="606" y2="98.4"/><text class="tick" x="40" y="101.9" text-anchor="end">1.5%</text><line class="grid" x1="46" y1="43.8" x2="606" y2="43.8"/><text class="tick" x="40" y="47.3" text-anchor="end">2%</text><text class="tick" x="75.5" y="292" text-anchor="middle">2007</text><text class="tick" x="163.9" y="292" text-anchor="middle">2010</text><text class="tick" x="252.3" y="292" text-anchor="middle">2013</text><text class="tick" x="340.7" y="292" text-anchor="middle">2016</text><text class="tick" x="429.2" y="292" text-anchor="middle">2019</text><text class="tick" x="517.6" y="292" text-anchor="middle">2022</text><text class="tick" x="606.0" y="292" text-anchor="middle">2025</text><polygon class="trendarea" points="46.0,262.0 46.0,260.4 75.5,259.3 104.9,260.3 134.4,258.8 163.9,258.9 193.4,258.1 222.8,257.9 252.3,257.7 281.8,256.9 311.3,256.5 340.7,253.5 370.2,242.7 399.7,219.8 429.2,187.2 458.6,175.4 488.1,156.5 517.6,172.0 547.1,179.1 576.5,128.4 576.5,262.0"/><polyline class="trendline" points="46.0,260.4 75.5,259.3 104.9,260.3 134.4,258.8 163.9,258.9 193.4,258.1 222.8,257.9 252.3,257.7 281.8,256.9 311.3,256.5 340.7,253.5 370.2,242.7 399.7,219.8 429.2,187.2 458.6,175.4 488.1,156.5 517.6,172.0 547.1,179.1 576.5,128.4"/><polyline class="trenddash" points="576.5,128.4 606.0,35.0"/><circle class="trenddot" cx="606.0" cy="35.0" r="4"/><text class="trendval" x="600.0" y="27.0" text-anchor="end">2.08%</text></svg>