<svg xmlns="http://www.w3.org/2000/svg" class="rankchart trend" viewBox="0 0 640 333" role="img" aria-label="AI in demand, share of Swedish job ads, 2006 to 2026"><style>:root{--c1:#0072b2;--c2:#d55e00;--c3:#009e73;--c4:#cc79a7;--ink:#161d2b}.rankchart{font-family:ui-monospace,Menlo,monospace}svg{background:#ffffff}.grid,.rowguide{stroke:#e7e4dd}.rowguide{opacity:.6}.meanline{stroke:#8a8a8a;stroke-dasharray:3 3}.meanlab,.tick{fill:#6d6a63;font-size:9px}.dname{fill:#3f3d39;font-size:10px}.dname.se{fill:#0072b2;font-weight:700}.dot{fill:#9a9a9a}.dot.se{fill:#0072b2}.bar{fill:#9a9a9a}.bar.se{fill:#0072b2}.dval{fill:#6d6a63;font-size:9.5px}.dval.se{fill:#0072b2;font-weight:700}.ddelta{fill:#6d6a63;font-size:8.5px}.trendarea{fill:#0072b2;opacity:.08}.trendline,.trenddash{fill:none;stroke:#0072b2;stroke-width:2}.trenddash{stroke-dasharray:4 3}.trenddot{fill:#0072b2}.trendval{fill:#0072b2;font-size:11px;font-weight:700}.sqband{fill:#0072b2;opacity:.10}.sqlo{fill:none;stroke:#009e73;stroke-width:2}.sqhi{fill:none;stroke:#0072b2;stroke-width:2.6}.sqdot.lo{fill:#009e73}.sqdot.hi{fill:#0072b2}.sqval{font-size:11px;font-weight:700}.sqval.lo{fill:#009e73}.sqval.hi{fill:#0072b2}.dumb{display:block}.dbtrack{stroke:#d9d5cd;stroke-width:3}.dblo{fill:#009e73}.dbhi{fill:#0072b2}.figttl{fill:#161d2b;font-size:12px;font-weight:700}.figsrc{fill:#6d6a63;font-size:8.5px}</style><line class="grid" x1="46" y1="262.0" x2="606" y2="262.0"/><text class="tick" x="40" y="265.5" text-anchor="end">0%</text><line class="grid" x1="46" y1="182.0" x2="606" y2="182.0"/><text class="tick" x="40" y="185.5" text-anchor="end">0.5%</text><line class="grid" x1="46" y1="102.0" x2="606" y2="102.0"/><text class="tick" x="40" y="105.5" text-anchor="end">1%</text><line class="grid" x1="46" y1="22.0" x2="606" y2="22.0"/><text class="tick" x="40" y="25.5" text-anchor="end">1.5%</text><text class="tick" x="74.0" y="292" text-anchor="middle">2007</text><text class="tick" x="158.0" y="292" text-anchor="middle">2010</text><text class="tick" x="242.0" y="292" text-anchor="middle">2013</text><text class="tick" x="326.0" y="292" text-anchor="middle">2016</text><text class="tick" x="410.0" y="292" text-anchor="middle">2019</text><text class="tick" x="494.0" y="292" text-anchor="middle">2022</text><text class="tick" x="578.0" y="292" text-anchor="middle">2025</text><text class="tick" x="606.0" y="292" text-anchor="middle">2026</text><polygon class="trendarea" points="46.0,262.0 46.0,254.0 74.0,251.6 102.0,251.9 130.0,247.9 158.0,250.3 186.0,246.8 214.0,247.0 242.0,249.2 270.0,245.5 298.0,239.9 326.0,229.0 354.0,218.8 382.0,187.1 410.0,146.2 438.0,140.9 466.0,131.0 494.0,133.5 522.0,139.4 550.0,108.2 578.0,88.2 578.0,262.0"/><polyline class="trendline" points="46.0,254.0 74.0,251.6 102.0,251.9 130.0,247.9 158.0,250.3 186.0,246.8 214.0,247.0 242.0,249.2 270.0,245.5 298.0,239.9 326.0,229.0 354.0,218.8 382.0,187.1 410.0,146.2 438.0,140.9 466.0,131.0 494.0,133.5 522.0,139.4 550.0,108.2 578.0,88.2"/><polyline class="trenddash" points="578.0,88.2 606.0,66.5"/><polyline points="46.0,258.8 74.0,257.2 102.0,257.2 130.0,257.4 158.0,257.2 186.0,256.2 214.0,256.4 242.0,257.7 270.0,255.9 298.0,252.2 326.0,247.8 354.0,241.8 382.0,225.7 410.0,211.1 438.0,206.5 466.0,203.4 494.0,204.7 522.0,204.2 550.0,189.2 578.0,174.5" fill="none" stroke="var(--c2)" stroke-width="2"/><polyline points="578.0,174.5 606.0,167.0" fill="none" stroke="var(--c2)" stroke-width="2" stroke-dasharray="4 3"/><circle class="trenddot" cx="606.0" cy="66.5" r="4"/><text class="trendval" x="600.0" y="58.5" text-anchor="end">1.22%</text><text class="figttl" x="8" y="314">Swedish job ads naming an AI skill, 2006 onwards</text><text class="figsrc" x="8" y="327">JobTech / Platsbanken job ads (CC0) · frozen v1.3 · distinct advertisements · AI-Econ Lab</text></svg>