<svg xmlns="http://www.w3.org/2000/svg" class="rankchart trend" viewBox="0 0 640 300" role="img" aria-label="AI in demand, share of Swedish job ads, 2006 to 2026"><style>.rankchart{font-family:ui-monospace,Menlo,monospace}svg{background:#ffffff}.grid,.rowguide{stroke:#e7e4dd}.rowguide{opacity:.6}.meanline{stroke:#8a8a8a;stroke-dasharray:3 3}.meanlab,.tick{fill:#6d6a63;font-size:9px}.dname{fill:#3f3d39;font-size:10px}.dname.se{fill:#0072b2;font-weight:700}.dot{fill:#9a9a9a}.dot.se{fill:#0072b2}.bar{fill:#9a9a9a}.bar.se{fill:#0072b2}.dval{fill:#6d6a63;font-size:9.5px}.dval.se{fill:#0072b2;font-weight:700}.ddelta{fill:#6d6a63;font-size:8.5px}.trendarea{fill:#0072b2;opacity:.08}.trendline,.trenddash{fill:none;stroke:#0072b2;stroke-width:2}.trenddash{stroke-dasharray:4 3}.trenddot{fill:#0072b2}.trendval{fill:#0072b2;font-size:11px;font-weight:700}.sqband{fill:#0072b2;opacity:.10}.sqlo{fill:none;stroke:#9a9a9a;stroke-width:2}.sqhi{fill:none;stroke:#0072b2;stroke-width:2.6}.sqdot.lo{fill:#9a9a9a}.sqdot.hi{fill:#0072b2}.sqval{font-size:11px;font-weight:700}.sqval.lo{fill:#9a9a9a}.sqval.hi{fill:#0072b2}.dumb{display:block}.dbtrack{stroke:#d9d5cd;stroke-width:3}.dblo{fill:#9a9a9a}.dbhi{fill:#0072b2}</style><line class="grid" x1="46" y1="262.0" x2="606" y2="262.0"/><text class="tick" x="40" y="265.5" text-anchor="end">0%</text><line class="grid" x1="46" y1="182.0" x2="606" y2="182.0"/><text class="tick" x="40" y="185.5" text-anchor="end">0.5%</text><line class="grid" x1="46" y1="102.0" x2="606" y2="102.0"/><text class="tick" x="40" y="105.5" text-anchor="end">1%</text><line class="grid" x1="46" y1="22.0" x2="606" y2="22.0"/><text class="tick" x="40" y="25.5" text-anchor="end">1.5%</text><text class="tick" x="74.0" y="292" text-anchor="middle">2007</text><text class="tick" x="158.0" y="292" text-anchor="middle">2010</text><text class="tick" x="242.0" y="292" text-anchor="middle">2013</text><text class="tick" x="326.0" y="292" text-anchor="middle">2016</text><text class="tick" x="410.0" y="292" text-anchor="middle">2019</text><text class="tick" x="494.0" y="292" text-anchor="middle">2022</text><text class="tick" x="578.0" y="292" text-anchor="middle">2025</text><text class="tick" x="606.0" y="292" text-anchor="middle">2026</text><polygon class="trendarea" points="46.0,262.0 46.0,252.7 74.0,248.9 102.0,249.8 130.0,247.3 158.0,249.5 186.0,247.4 214.0,246.6 242.0,248.1 270.0,245.2 298.0,241.8 326.0,234.2 354.0,224.1 382.0,197.7 410.0,156.7 438.0,148.2 466.0,150.6 494.0,165.0 522.0,183.9 550.0,141.7 578.0,117.8 578.0,262.0"/><polyline class="trendline" points="46.0,252.7 74.0,248.9 102.0,249.8 130.0,247.3 158.0,249.5 186.0,247.4 214.0,246.6 242.0,248.1 270.0,245.2 298.0,241.8 326.0,234.2 354.0,224.1 382.0,197.7 410.0,156.7 438.0,148.2 466.0,150.6 494.0,165.0 522.0,183.9 550.0,141.7 578.0,117.8"/><polyline class="trenddash" points="578.0,117.8 606.0,82.6"/><polyline points="46.0,258.8 74.0,257.2 102.0,257.5 130.0,259.0 158.0,257.8 186.0,257.0 214.0,256.9 242.0,257.8 270.0,256.4 298.0,252.7 326.0,248.2 354.0,243.9 382.0,233.4 410.0,220.9 438.0,213.8 466.0,213.7 494.0,221.0 522.0,228.6 550.0,209.7 578.0,191.4" fill="none" stroke="var(--c2)" stroke-width="2"/><polyline points="578.0,191.4 606.0,182.0" fill="none" stroke="var(--c2)" stroke-width="2" stroke-dasharray="4 3"/><circle class="trenddot" cx="606.0" cy="82.6" r="4"/><text class="trendval" x="600.0" y="74.6" text-anchor="end">1.12%</text></svg>