<svg xmlns="http://www.w3.org/2000/svg" class="rankchart barplot" viewBox="0 0 640 142" role="img" aria-label="Ranked bar chart of firms using AI by country, 6 countries, Sweden highlighted"><style>.rankchart{font-family:ui-monospace,Menlo,monospace}svg{background:#ffffff}.grid,.rowguide{stroke:#e7e4dd}.rowguide{opacity:.6}.meanline{stroke:#8a8a8a;stroke-dasharray:3 3}.meanlab,.tick{fill:#6d6a63;font-size:9px}.dname{fill:#3f3d39;font-size:10px}.dname.se{fill:#0072b2;font-weight:700}.dot{fill:#9a9a9a}.dot.se{fill:#0072b2}.bar{fill:#9a9a9a}.bar.se{fill:#0072b2}.dval{fill:#6d6a63;font-size:9.5px}.dval.se{fill:#0072b2;font-weight:700}.ddelta{fill:#6d6a63;font-size:8.5px}.trendarea{fill:#0072b2;opacity:.08}.trendline,.trenddash{fill:none;stroke:#0072b2;stroke-width:2}.trenddash{stroke-dasharray:4 3}.trenddot{fill:#0072b2}.trendval{fill:#0072b2;font-size:11px;font-weight:700}.sqband{fill:#0072b2;opacity:.10}.sqlo{fill:none;stroke:#9a9a9a;stroke-width:2}.sqhi{fill:none;stroke:#0072b2;stroke-width:2.6}.sqdot.lo{fill:#9a9a9a}.sqdot.hi{fill:#0072b2}.sqval{font-size:11px;font-weight:700}.sqval.lo{fill:#9a9a9a}.sqval.hi{fill:#0072b2}.dumb{display:block}.dbtrack{stroke:#d9d5cd;stroke-width:3}.dblo{fill:#9a9a9a}.dbhi{fill:#0072b2}</style><line class="grid" x1="140.0" y1="18" x2="140.0" y2="108"/><text class="tick" x="140.0" y="129" text-anchor="middle">0%</text><line class="grid" x1="178.8" y1="18" x2="178.8" y2="108"/><text class="tick" x="178.8" y="129" text-anchor="middle">10%</text><line class="grid" x1="217.6" y1="18" x2="217.6" y2="108"/><text class="tick" x="217.6" y="129" text-anchor="middle">20%</text><line class="grid" x1="256.4" y1="18" x2="256.4" y2="108"/><text class="tick" x="256.4" y="129" text-anchor="middle">30%</text><line class="grid" x1="295.2" y1="18" x2="295.2" y2="108"/><text class="tick" x="295.2" y="129" text-anchor="middle">40%</text><line class="grid" x1="334.0" y1="18" x2="334.0" y2="108"/><text class="tick" x="334.0" y="129" text-anchor="middle">50%</text><line class="grid" x1="372.8" y1="18" x2="372.8" y2="108"/><text class="tick" x="372.8" y="129" text-anchor="middle">60%</text><line class="grid" x1="411.6" y1="18" x2="411.6" y2="108"/><text class="tick" x="411.6" y="129" text-anchor="middle">70%</text><line class="grid" x1="450.4" y1="18" x2="450.4" y2="108"/><text class="tick" x="450.4" y="129" text-anchor="middle">80%</text><line class="grid" x1="489.2" y1="18" x2="489.2" y2="108"/><text class="tick" x="489.2" y="129" text-anchor="middle">90%</text><line class="grid" x1="528.0" y1="18" x2="528.0" y2="108"/><text class="tick" x="528.0" y="129" text-anchor="middle">100%</text><text class="dname" x="128" y="28.8" text-anchor="end">Communicators</text><rect class="bar" x="140" y="21.9" width="372.5" height="7.5" rx="2"/><text class="dval" x="574" y="28.8" text-anchor="end">96</text><text class="ddelta" x="632" y="28.8" text-anchor="end">+28</text><text class="dname" x="128" y="43.8" text-anchor="end">IT academics</text><rect class="bar" x="140" y="36.9" width="341.4" height="7.5" rx="2"/><text class="dval" x="574" y="43.8" text-anchor="end">88</text><text class="ddelta" x="632" y="43.8" text-anchor="end">+36</text><text class="dname" x="128" y="58.8" text-anchor="end">HR specialists</text><rect class="bar" x="140" y="51.9" width="318.2" height="7.5" rx="2"/><text class="dval" x="574" y="58.8" text-anchor="end">82</text><text class="ddelta" x="632" y="58.8" text-anchor="end">+48</text><text class="dname" x="128" y="73.8" text-anchor="end">Economists</text><rect class="bar" x="140" y="66.9" width="314.3" height="7.5" rx="2"/><text class="dval" x="574" y="73.8" text-anchor="end">81</text><text class="ddelta" x="632" y="73.8" text-anchor="end">+50</text><text class="dname" x="128" y="88.8" text-anchor="end">Social scientists</text><rect class="bar" x="140" y="81.9" width="287.1" height="7.5" rx="2"/><text class="dval" x="574" y="88.8" text-anchor="end">74</text><text class="ddelta" x="632" y="88.8" text-anchor="end">+47</text><text class="dname" x="128" y="103.8" text-anchor="end">Lawyers</text><rect class="bar" x="140" y="96.9" width="240.6" height="7.5" rx="2"/><text class="dval" x="574" y="103.8" text-anchor="end">62</text><text class="ddelta" x="632" y="103.8" text-anchor="end">+43</text></svg>