<svg xmlns="http://www.w3.org/2000/svg" class="rankchart barplot" viewBox="0 0 640 142" role="img" aria-label="Ranked bar chart, 6 professions, latest value with change since the previous wave"><style>:root{--c1:#0072b2;--c2:#d55e00;--c3:#009e73;--c4:#cc79a7;--ink:#161d2b}.rankchart{font-family:ui-monospace,Menlo,monospace}svg{background:#ffffff}.grid,.rowguide{stroke:#e7e4dd}.rowguide{opacity:.6}.meanline{stroke:#8a8a8a;stroke-dasharray:3 3}.meanlab,.tick{fill:#6d6a63;font-size:9px}.dname{fill:#3f3d39;font-size:10px}.dname.se{fill:#0072b2;font-weight:700}.dot{fill:#9a9a9a}.dot.se{fill:#0072b2}.bar{fill:#9a9a9a}.bar.se{fill:#0072b2}.dval{fill:#6d6a63;font-size:9.5px}.dval.se{fill:#0072b2;font-weight:700}.ddelta{fill:#6d6a63;font-size:8.5px}.trendarea{fill:#0072b2;opacity:.08}.trendline,.trenddash{fill:none;stroke:#0072b2;stroke-width:2}.trenddash{stroke-dasharray:4 3}.trenddot{fill:#0072b2}.trendval{fill:#0072b2;font-size:11px;font-weight:700}.trendcov{fill:#6d6a63;font-size:9px}.sqband{fill:#0072b2;opacity:.10}.sqlo{fill:none;stroke:#009e73;stroke-width:2}.sqhi{fill:none;stroke:#0072b2;stroke-width:2.6}.sqdot.lo{fill:#009e73}.sqdot.hi{fill:#0072b2}.sqval{font-size:11px;font-weight:700}.sqval.lo{fill:#009e73}.sqval.hi{fill:#0072b2}.dumb{display:block}.dbtrack{stroke:#d9d5cd;stroke-width:3}.dblo{fill:#009e73}.dbhi{fill:#0072b2}.figttl{fill:#161d2b;font-size:12px;font-weight:700}.figsrc{fill:#6d6a63;font-size:8.5px}</style><text class="tick" x="632" y="10.5" text-anchor="end">pp</text><line class="grid" x1="189.0" y1="18" x2="189.0" y2="108"/><text class="tick" x="189.0" y="129" text-anchor="middle">0%</text><line class="grid" x1="226.7" y1="18" x2="226.7" y2="108"/><text class="tick" x="226.7" y="129" text-anchor="middle">10%</text><line class="grid" x1="264.3" y1="18" x2="264.3" y2="108"/><text class="tick" x="264.3" y="129" text-anchor="middle">20%</text><line class="grid" x1="302.0" y1="18" x2="302.0" y2="108"/><text class="tick" x="302.0" y="129" text-anchor="middle">30%</text><line class="grid" x1="339.7" y1="18" x2="339.7" y2="108"/><text class="tick" x="339.7" y="129" text-anchor="middle">40%</text><line class="grid" x1="377.3" y1="18" x2="377.3" y2="108"/><text class="tick" x="377.3" y="129" text-anchor="middle">50%</text><line class="grid" x1="415.0" y1="18" x2="415.0" y2="108"/><text class="tick" x="415.0" y="129" text-anchor="middle">60%</text><line class="grid" x1="452.7" y1="18" x2="452.7" y2="108"/><text class="tick" x="452.7" y="129" text-anchor="middle">70%</text><line class="grid" x1="490.3" y1="18" x2="490.3" y2="108"/><text class="tick" x="490.3" y="129" text-anchor="middle">80%</text><line class="grid" x1="528.0" y1="18" x2="528.0" y2="108"/><text class="tick" x="528.0" y="129" text-anchor="middle">90%</text><text class="dname" x="177" y="28.8" text-anchor="end">Communication professionals</text><rect class="bar" x="189" y="21.9" width="308.9" height="7.5" rx="2"/><text class="dval" x="574" y="28.8" text-anchor="end">82</text><text class="ddelta" x="632" y="28.8" text-anchor="end">+28</text><text class="dname" x="177" y="43.8" text-anchor="end">IT professionals</text><rect class="bar" x="189" y="36.9" width="297.6" height="7.5" rx="2"/><text class="dval" x="574" y="43.8" text-anchor="end">79</text><text class="ddelta" x="632" y="43.8" text-anchor="end">+36</text><text class="dname" x="177" y="58.8" text-anchor="end">HR specialists</text><rect class="bar" x="189" y="51.9" width="297.6" height="7.5" rx="2"/><text class="dval" x="574" y="58.8" text-anchor="end">79</text><text class="ddelta" x="632" y="58.8" text-anchor="end">+47</text><text class="dname" x="177" y="73.8" text-anchor="end"><title>Business professionals and economists</title>Business professionals etc.</text><rect class="bar" x="189" y="66.9" width="271.2" height="7.5" rx="2"/><text class="dval" x="574" y="73.8" text-anchor="end">72</text><text class="ddelta" x="632" y="73.8" text-anchor="end">+45</text><text class="dname" x="177" y="88.8" text-anchor="end">Social scientists</text><rect class="bar" x="189" y="81.9" width="222.2" height="7.5" rx="2"/><text class="dval" x="574" y="88.8" text-anchor="end">59</text><text class="ddelta" x="632" y="88.8" text-anchor="end">+36</text><text class="dname" x="177" y="103.8" text-anchor="end">Lawyers</text><rect class="bar" x="189" y="96.9" width="214.7" height="7.5" rx="2"/><text class="dval" x="574" y="103.8" text-anchor="end">57</text><text class="ddelta" x="632" y="103.8" text-anchor="end">+39</text></svg>