<svg xmlns="http://www.w3.org/2000/svg" class="rankchart barplot" viewBox="0 0 640 382" role="img" aria-label="Ranked bar chart of firms using AI by country, 22 countries, Sweden highlighted"><style>.rankchart{font-family:ui-monospace,Menlo,monospace}svg{background:#ffffff}.grid,.rowguide{stroke:#e7e4dd}.rowguide{opacity:.6}.meanline{stroke:#8a8a8a;stroke-dasharray:3 3}.meanlab,.tick{fill:#6d6a63;font-size:9px}.dname{fill:#3f3d39;font-size:10px}.dname.se{fill:#0072b2;font-weight:700}.dot{fill:#9a9a9a}.dot.se{fill:#0072b2}.bar{fill:#9a9a9a}.bar.se{fill:#0072b2}.dval{fill:#6d6a63;font-size:9.5px}.dval.se{fill:#0072b2;font-weight:700}.ddelta{fill:#6d6a63;font-size:8.5px}.trendarea{fill:#0072b2;opacity:.08}.trendline,.trenddash{fill:none;stroke:#0072b2;stroke-width:2}.trenddash{stroke-dasharray:4 3}.trenddot{fill:#0072b2}.trendval{fill:#0072b2;font-size:11px;font-weight:700}.sqband{fill:#0072b2;opacity:.10}.sqlo{fill:none;stroke:#9a9a9a;stroke-width:2}.sqhi{fill:none;stroke:#0072b2;stroke-width:2.6}.sqdot.lo{fill:#9a9a9a}.sqdot.hi{fill:#0072b2}.sqval{font-size:11px;font-weight:700}.sqval.lo{fill:#9a9a9a}.sqval.hi{fill:#0072b2}.dumb{display:block}.dbtrack{stroke:#d9d5cd;stroke-width:3}.dblo{fill:#9a9a9a}.dbhi{fill:#0072b2}</style><line class="grid" x1="140.0" y1="18" x2="140.0" y2="348"/><text class="tick" x="140.0" y="369" text-anchor="middle">0%</text><line class="grid" x1="217.6" y1="18" x2="217.6" y2="348"/><text class="tick" x="217.6" y="369" text-anchor="middle">1%</text><line class="grid" x1="295.2" y1="18" x2="295.2" y2="348"/><text class="tick" x="295.2" y="369" text-anchor="middle">2%</text><line class="grid" x1="372.8" y1="18" x2="372.8" y2="348"/><text class="tick" x="372.8" y="369" text-anchor="middle">3%</text><line class="grid" x1="450.4" y1="18" x2="450.4" y2="348"/><text class="tick" x="450.4" y="369" text-anchor="middle">4%</text><line class="grid" x1="528.0" y1="18" x2="528.0" y2="348"/><text class="tick" x="528.0" y="369" text-anchor="middle">5%</text><text class="dname" x="128" y="28.8" text-anchor="end">Singapore</text><rect class="bar" x="140" y="21.9" width="363.9" height="7.5" rx="2"/><text class="dval" x="574" y="28.8" text-anchor="end">4.7</text><text class="dname" x="128" y="43.8" text-anchor="end">Hong Kong</text><rect class="bar" x="140" y="36.9" width="270.0" height="7.5" rx="2"/><text class="dval" x="574" y="43.8" text-anchor="end">3.5</text><text class="dname" x="128" y="58.8" text-anchor="end">Luxembourg</text><rect class="bar" x="140" y="51.9" width="266.2" height="7.5" rx="2"/><text class="dval" x="574" y="58.8" text-anchor="end">3.4</text><text class="dname" x="128" y="73.8" text-anchor="end">Spain</text><rect class="bar" x="140" y="66.9" width="256.9" height="7.5" rx="2"/><text class="dval" x="574" y="73.8" text-anchor="end">3.3</text><text class="dname" x="128" y="88.8" text-anchor="end">Canada</text><rect class="bar" x="140" y="81.9" width="232.8" height="7.5" rx="2"/><text class="dval" x="574" y="88.8" text-anchor="end">3.0</text><text class="dname" x="128" y="103.8" text-anchor="end">Poland</text><rect class="bar" x="140" y="96.9" width="226.6" height="7.5" rx="2"/><text class="dval" x="574" y="103.8" text-anchor="end">2.9</text><text class="dname" x="128" y="118.8" text-anchor="end">UAE</text><rect class="bar" x="140" y="111.9" width="222.7" height="7.5" rx="2"/><text class="dval" x="574" y="118.8" text-anchor="end">2.9</text><text class="dname se" x="128" y="133.8" text-anchor="end">Sweden</text><rect class="bar se" x="140" y="126.9" width="215.0" height="7.5" rx="2"/><text class="dval se" x="574" y="133.8" text-anchor="end">2.8</text><text class="dname" x="128" y="148.8" text-anchor="end">United States</text><rect class="bar" x="140" y="141.9" width="198.7" height="7.5" rx="2"/><text class="dval" x="574" y="148.8" text-anchor="end">2.6</text><text class="dname" x="128" y="163.8" text-anchor="end">Chile</text><rect class="bar" x="140" y="156.9" width="187.0" height="7.5" rx="2"/><text class="dval" x="574" y="163.8" text-anchor="end">2.4</text><text class="dname" x="128" y="178.8" text-anchor="end">United Kingdom</text><rect class="bar" x="140" y="171.9" width="149.8" height="7.5" rx="2"/><text class="dval" x="574" y="178.8" text-anchor="end">1.9</text><text class="dname" x="128" y="193.8" text-anchor="end">Australia</text><rect class="bar" x="140" y="186.9" width="138.1" height="7.5" rx="2"/><text class="dval" x="574" y="193.8" text-anchor="end">1.8</text><text class="dname" x="128" y="208.8" text-anchor="end">Switzerland</text><rect class="bar" x="140" y="201.9" width="123.4" height="7.5" rx="2"/><text class="dval" x="574" y="208.8" text-anchor="end">1.6</text><text class="dname" x="128" y="223.8" text-anchor="end">Mexico</text><rect class="bar" x="140" y="216.9" width="107.1" height="7.5" rx="2"/><text class="dval" x="574" y="223.8" text-anchor="end">1.4</text><text class="dname" x="128" y="238.8" text-anchor="end">Belgium</text><rect class="bar" x="140" y="231.9" width="105.5" height="7.5" rx="2"/><text class="dval" x="574" y="238.8" text-anchor="end">1.4</text><text class="dname" x="128" y="253.8" text-anchor="end">Italy</text><rect class="bar" x="140" y="246.9" width="103.2" height="7.5" rx="2"/><text class="dval" x="574" y="253.8" text-anchor="end">1.3</text><text class="dname" x="128" y="268.8" text-anchor="end">Germany</text><rect class="bar" x="140" y="261.9" width="87.7" height="7.5" rx="2"/><text class="dval" x="574" y="268.8" text-anchor="end">1.1</text><text class="dname" x="128" y="283.8" text-anchor="end">Netherlands</text><rect class="bar" x="140" y="276.9" width="80.7" height="7.5" rx="2"/><text class="dval" x="574" y="283.8" text-anchor="end">1.0</text><text class="dname" x="128" y="298.8" text-anchor="end">France</text><rect class="bar" x="140" y="291.9" width="76.8" height="7.5" rx="2"/><text class="dval" x="574" y="298.8" text-anchor="end">1.0</text><text class="dname" x="128" y="313.8" text-anchor="end">Austria</text><rect class="bar" x="140" y="306.9" width="65.2" height="7.5" rx="2"/><text class="dval" x="574" y="313.8" text-anchor="end">0.8</text><text class="dname" x="128" y="328.8" text-anchor="end">New Zealand</text><rect class="bar" x="140" y="321.9" width="62.9" height="7.5" rx="2"/><text class="dval" x="574" y="328.8" text-anchor="end">0.8</text><text class="dname" x="128" y="343.8" text-anchor="end">Croatia</text><rect class="bar" x="140" y="336.9" width="29.5" height="7.5" rx="2"/><text class="dval" x="574" y="343.8" text-anchor="end">0.4</text></svg>