<svg xmlns="http://www.w3.org/2000/svg" class="rankchart barplot" viewBox="0 0 640 592" role="img" aria-label="Ranked bar chart of firms using AI by country, 36 countries, Sweden highlighted"><style>.rankchart{font-family:ui-monospace,Menlo,monospace}svg{background:#ffffff}.grid,.rowguide{stroke:#e7e4dd}.rowguide{opacity:.6}.meanline{stroke:#8a8a8a;stroke-dasharray:3 3}.meanlab,.tick{fill:#6d6a63;font-size:9px}.dname{fill:#3f3d39;font-size:10px}.dname.se{fill:#0072b2;font-weight:700}.dot{fill:#9a9a9a}.dot.se{fill:#0072b2}.bar{fill:#9a9a9a}.bar.se{fill:#0072b2}.dval{fill:#6d6a63;font-size:9.5px}.dval.se{fill:#0072b2;font-weight:700}.ddelta{fill:#6d6a63;font-size:8.5px}.trendarea{fill:#0072b2;opacity:.08}.trendline,.trenddash{fill:none;stroke:#0072b2;stroke-width:2}.trenddash{stroke-dasharray:4 3}.trenddot{fill:#0072b2}.trendval{fill:#0072b2;font-size:11px;font-weight:700}.sqband{fill:#0072b2;opacity:.10}.sqlo{fill:none;stroke:#9a9a9a;stroke-width:2}.sqhi{fill:none;stroke:#0072b2;stroke-width:2.6}.sqdot.lo{fill:#9a9a9a}.sqdot.hi{fill:#0072b2}.sqval{font-size:11px;font-weight:700}.sqval.lo{fill:#9a9a9a}.sqval.hi{fill:#0072b2}.dumb{display:block}.dbtrack{stroke:#d9d5cd;stroke-width:3}.dblo{fill:#9a9a9a}.dbhi{fill:#0072b2}</style><line class="grid" x1="140.0" y1="18" x2="140.0" y2="558"/><text class="tick" x="140.0" y="579" text-anchor="middle">0%</text><line class="grid" x1="204.7" y1="18" x2="204.7" y2="558"/><text class="tick" x="204.7" y="579" text-anchor="middle">10%</text><line class="grid" x1="269.3" y1="18" x2="269.3" y2="558"/><text class="tick" x="269.3" y="579" text-anchor="middle">20%</text><line class="grid" x1="334.0" y1="18" x2="334.0" y2="558"/><text class="tick" x="334.0" y="579" text-anchor="middle">30%</text><line class="grid" x1="398.7" y1="18" x2="398.7" y2="558"/><text class="tick" x="398.7" y="579" text-anchor="middle">40%</text><line class="grid" x1="463.3" y1="18" x2="463.3" y2="558"/><text class="tick" x="463.3" y="579" text-anchor="middle">50%</text><line class="grid" x1="528.0" y1="18" x2="528.0" y2="558"/><text class="tick" x="528.0" y="579" text-anchor="middle">60%</text><line class="meanline" x1="335.3" y1="17" x2="335.3" y2="558"/><text class="meanlab" x="335.3" y="13" text-anchor="middle">EU 30.2</text><text class="dname" x="128" y="28.8" text-anchor="end">Luxembourg</text><rect class="bar" x="140" y="21.9" width="362.1" height="7.5" rx="2"/><text class="dval" x="574" y="28.8" text-anchor="end">56</text><text class="dname se" x="128" y="43.8" text-anchor="end">Sweden</text><rect class="bar se" x="140" y="36.9" width="253.5" height="7.5" rx="2"/><text class="dval se" x="574" y="43.8" text-anchor="end">39</text><text class="dname" x="128" y="58.8" text-anchor="end">Netherlands</text><rect class="bar" x="140" y="51.9" width="249.0" height="7.5" rx="2"/><text class="dval" x="574" y="58.8" text-anchor="end">38</text><text class="dname" x="128" y="73.8" text-anchor="end">Belgium</text><rect class="bar" x="140" y="66.9" width="243.8" height="7.5" rx="2"/><text class="dval" x="574" y="73.8" text-anchor="end">38</text><text class="dname" x="128" y="88.8" text-anchor="end">Switzerland</text><rect class="bar" x="140" y="81.9" width="234.7" height="7.5" rx="2"/><text class="dval" x="574" y="88.8" text-anchor="end">36</text><text class="dname" x="128" y="103.8" text-anchor="end">Germany</text><rect class="bar" x="140" y="96.9" width="227.6" height="7.5" rx="2"/><text class="dval" x="574" y="103.8" text-anchor="end">35</text><text class="dname" x="128" y="118.8" text-anchor="end">Cyprus</text><rect class="bar" x="140" y="111.9" width="223.7" height="7.5" rx="2"/><text class="dval" x="574" y="118.8" text-anchor="end">35</text><text class="dname" x="128" y="133.8" text-anchor="end">Denmark</text><rect class="bar" x="140" y="126.9" width="221.2" height="7.5" rx="2"/><text class="dval" x="574" y="133.8" text-anchor="end">34</text><text class="dname" x="128" y="148.8" text-anchor="end">United Kingdom ’19</text><rect class="bar" x="140" y="141.9" width="216.6" height="7.5" rx="2"/><text class="dval" x="574" y="148.8" text-anchor="end">34</text><text class="dname" x="128" y="163.8" text-anchor="end">France</text><rect class="bar" x="140" y="156.9" width="216.6" height="7.5" rx="2"/><text class="dval" x="574" y="163.8" text-anchor="end">34</text><text class="dname" x="128" y="178.8" text-anchor="end">Lithuania</text><rect class="bar" x="140" y="171.9" width="212.1" height="7.5" rx="2"/><text class="dval" x="574" y="178.8" text-anchor="end">33</text><text class="dname" x="128" y="193.8" text-anchor="end">Finland</text><rect class="bar" x="140" y="186.9" width="212.1" height="7.5" rx="2"/><text class="dval" x="574" y="193.8" text-anchor="end">33</text><text class="dname" x="128" y="208.8" text-anchor="end">Ireland</text><rect class="bar" x="140" y="201.9" width="209.5" height="7.5" rx="2"/><text class="dval" x="574" y="208.8" text-anchor="end">32</text><text class="dname" x="128" y="223.8" text-anchor="end">Austria</text><rect class="bar" x="140" y="216.9" width="204.3" height="7.5" rx="2"/><text class="dval" x="574" y="223.8" text-anchor="end">32</text><text class="dname" x="128" y="238.8" text-anchor="end">Estonia</text><rect class="bar" x="140" y="231.9" width="200.5" height="7.5" rx="2"/><text class="dval" x="574" y="238.8" text-anchor="end">31</text><text class="dname" x="128" y="253.8" text-anchor="end">Poland</text><rect class="bar" x="140" y="246.9" width="199.8" height="7.5" rx="2"/><text class="dval" x="574" y="253.8" text-anchor="end">31</text><text class="dname" x="128" y="268.8" text-anchor="end">Norway</text><rect class="bar" x="140" y="261.9" width="197.9" height="7.5" rx="2"/><text class="dval" x="574" y="268.8" text-anchor="end">31</text><text class="dname" x="128" y="283.8" text-anchor="end">Malta</text><rect class="bar" x="140" y="276.9" width="194.6" height="7.5" rx="2"/><text class="dval" x="574" y="283.8" text-anchor="end">30</text><text class="dname" x="128" y="298.8" text-anchor="end">Slovenia</text><rect class="bar" x="140" y="291.9" width="191.4" height="7.5" rx="2"/><text class="dval" x="574" y="298.8" text-anchor="end">30</text><text class="dname" x="128" y="313.8" text-anchor="end">Czechia</text><rect class="bar" x="140" y="306.9" width="190.1" height="7.5" rx="2"/><text class="dval" x="574" y="313.8" text-anchor="end">29</text><text class="dname" x="128" y="328.8" text-anchor="end">Hungary</text><rect class="bar" x="140" y="321.9" width="188.8" height="7.5" rx="2"/><text class="dval" x="574" y="328.8" text-anchor="end">29</text><text class="dname" x="128" y="343.8" text-anchor="end">Italy</text><rect class="bar" x="140" y="336.9" width="185.6" height="7.5" rx="2"/><text class="dval" x="574" y="343.8" text-anchor="end">29</text><text class="dname" x="128" y="358.8" text-anchor="end">Portugal</text><rect class="bar" x="140" y="351.9" width="181.7" height="7.5" rx="2"/><text class="dval" x="574" y="358.8" text-anchor="end">28</text><text class="dname" x="128" y="373.8" text-anchor="end">Latvia</text><rect class="bar" x="140" y="366.9" width="181.1" height="7.5" rx="2"/><text class="dval" x="574" y="373.8" text-anchor="end">28</text><text class="dname" x="128" y="388.8" text-anchor="end">Montenegro ’20</text><rect class="bar" x="140" y="381.9" width="175.2" height="7.5" rx="2"/><text class="dval" x="574" y="388.8" text-anchor="end">27</text><text class="dname" x="128" y="403.8" text-anchor="end">Slovakia</text><rect class="bar" x="140" y="396.9" width="174.6" height="7.5" rx="2"/><text class="dval" x="574" y="403.8" text-anchor="end">27</text><text class="dname" x="128" y="418.8" text-anchor="end">Croatia</text><rect class="bar" x="140" y="411.9" width="172.7" height="7.5" rx="2"/><text class="dval" x="574" y="418.8" text-anchor="end">27</text><text class="dname" x="128" y="433.8" text-anchor="end">Iceland</text><rect class="bar" x="140" y="426.9" width="163.6" height="7.5" rx="2"/><text class="dval" x="574" y="433.8" text-anchor="end">25</text><text class="dname" x="128" y="448.8" text-anchor="end">Serbia</text><rect class="bar" x="140" y="441.9" width="159.7" height="7.5" rx="2"/><text class="dval" x="574" y="448.8" text-anchor="end">25</text><text class="dname" x="128" y="463.8" text-anchor="end">Greece</text><rect class="bar" x="140" y="456.9" width="157.8" height="7.5" rx="2"/><text class="dval" x="574" y="463.8" text-anchor="end">24</text><text class="dname" x="128" y="478.8" text-anchor="end">N. Macedonia</text><rect class="bar" x="140" y="471.9" width="156.5" height="7.5" rx="2"/><text class="dval" x="574" y="478.8" text-anchor="end">24</text><text class="dname" x="128" y="493.8" text-anchor="end">Spain</text><rect class="bar" x="140" y="486.9" width="155.8" height="7.5" rx="2"/><text class="dval" x="574" y="493.8" text-anchor="end">24</text><text class="dname" x="128" y="508.8" text-anchor="end">Bulgaria</text><rect class="bar" x="140" y="501.9" width="154.6" height="7.5" rx="2"/><text class="dval" x="574" y="508.8" text-anchor="end">24</text><text class="dname" x="128" y="523.8" text-anchor="end">Romania</text><rect class="bar" x="140" y="516.9" width="127.4" height="7.5" rx="2"/><text class="dval" x="574" y="523.8" text-anchor="end">20</text><text class="dname" x="128" y="538.8" text-anchor="end">Bosnia &amp; Herz.</text><rect class="bar" x="140" y="531.9" width="124.8" height="7.5" rx="2"/><text class="dval" x="574" y="538.8" text-anchor="end">19</text><text class="dname" x="128" y="553.8" text-anchor="end">Turkey</text><rect class="bar" x="140" y="546.9" width="102.8" height="7.5" rx="2"/><text class="dval" x="574" y="553.8" text-anchor="end">16</text></svg>