<svg xmlns="http://www.w3.org/2000/svg" class="rankchart barplot" viewBox="0 0 640 545" role="img" aria-label="Ranked bar chart of firms using AI by country, 33 countries, Sweden highlighted"><style>.rankchart{font-family:ui-monospace,Menlo,monospace}.grid,.rowguide{stroke:#e7e4dd}.rowguide{opacity:.6}.meanline{stroke:#8a8a8a;stroke-dasharray:3 3}.meanlab,.tick{fill:#6d6a63;font-size:9px}.dname{fill:#3f3d39;font-size:10px}.dname.se{fill:#0072b2;font-weight:700}.dot{fill:#9a9a9a}.dot.se{fill:#0072b2}.bar{fill:#9a9a9a}.bar.se{fill:#0072b2}.dval{fill:#6d6a63;font-size:9.5px}.dval.se{fill:#0072b2;font-weight:700}</style><line class="grid" x1="140.0" y1="16" x2="140.0" y2="511"/><text class="tick" x="140.0" y="531" text-anchor="middle">0%</text><line class="grid" x1="240.0" y1="16" x2="240.0" y2="511"/><text class="tick" x="240.0" y="531" text-anchor="middle">5%</text><line class="grid" x1="340.0" y1="16" x2="340.0" y2="511"/><text class="tick" x="340.0" y="531" text-anchor="middle">10%</text><line class="grid" x1="440.0" y1="16" x2="440.0" y2="511"/><text class="tick" x="440.0" y="531" text-anchor="middle">15%</text><line class="grid" x1="540.0" y1="16" x2="540.0" y2="511"/><text class="tick" x="540.0" y="531" text-anchor="middle">20%</text><line class="meanline" x1="294.0" y1="15" x2="294.0" y2="511"/><text class="meanlab" x="294.0" y="12" text-anchor="middle">EU avg</text><text class="dname" x="128" y="26.8" text-anchor="end">Denmark</text><rect class="bar" x="140" y="19.9" width="303.4" height="7.5" rx="2"/><text class="dval" x="600" y="26.8" text-anchor="end">15.2</text><text class="dname" x="128" y="41.8" text-anchor="end">Finland</text><rect class="bar" x="140" y="34.9" width="302.0" height="7.5" rx="2"/><text class="dval" x="600" y="41.8" text-anchor="end">15.1</text><text class="dname" x="128" y="56.8" text-anchor="end">Luxembourg</text><rect class="bar" x="140" y="49.9" width="289.0" height="7.5" rx="2"/><text class="dval" x="600" y="56.8" text-anchor="end">14.4</text><text class="dname" x="128" y="71.8" text-anchor="end">Netherlands</text><rect class="bar" x="140" y="64.9" width="282.0" height="7.5" rx="2"/><text class="dval" x="600" y="71.8" text-anchor="end">14.1</text><text class="dname" x="128" y="86.8" text-anchor="end">Belgium</text><rect class="bar" x="140" y="79.9" width="276.2" height="7.5" rx="2"/><text class="dval" x="600" y="86.8" text-anchor="end">13.8</text><text class="dname" x="128" y="101.8" text-anchor="end">Malta</text><rect class="bar" x="140" y="94.9" width="263.4" height="7.5" rx="2"/><text class="dval" x="600" y="101.8" text-anchor="end">13.2</text><text class="dname" x="128" y="116.8" text-anchor="end">Germany</text><rect class="bar" x="140" y="109.9" width="231.0" height="7.5" rx="2"/><text class="dval" x="600" y="116.8" text-anchor="end">11.6</text><text class="dname" x="128" y="131.8" text-anchor="end">Slovenia</text><rect class="bar" x="140" y="124.9" width="227.4" height="7.5" rx="2"/><text class="dval" x="600" y="131.8" text-anchor="end">11.4</text><text class="dname" x="128" y="146.8" text-anchor="end">Austria</text><rect class="bar" x="140" y="139.9" width="215.8" height="7.5" rx="2"/><text class="dval" x="600" y="146.8" text-anchor="end">10.8</text><text class="dname se" x="128" y="161.8" text-anchor="end">Sweden</text><rect class="bar se" x="140" y="154.9" width="207.4" height="7.5" rx="2"/><text class="dval se" x="600" y="161.8" text-anchor="end">10.4</text><text class="dname" x="128" y="176.8" text-anchor="end">Spain</text><rect class="bar" x="140" y="169.9" width="183.6" height="7.5" rx="2"/><text class="dval" x="600" y="176.8" text-anchor="end">9.2</text><text class="dname" x="128" y="191.8" text-anchor="end">Norway</text><rect class="bar" x="140" y="184.9" width="183.4" height="7.5" rx="2"/><text class="dval" x="600" y="191.8" text-anchor="end">9.2</text><text class="dname" x="128" y="206.8" text-anchor="end">Ireland</text><rect class="bar" x="140" y="199.9" width="160.2" height="7.5" rx="2"/><text class="dval" x="600" y="206.8" text-anchor="end">8.0</text><text class="dname" x="128" y="221.8" text-anchor="end">Croatia</text><rect class="bar" x="140" y="214.9" width="157.8" height="7.5" rx="2"/><text class="dval" x="600" y="221.8" text-anchor="end">7.9</text><text class="dname" x="128" y="236.8" text-anchor="end">Portugal</text><rect class="bar" x="140" y="229.9" width="157.2" height="7.5" rx="2"/><text class="dval" x="600" y="236.8" text-anchor="end">7.9</text><text class="dname" x="128" y="251.8" text-anchor="end">Slovakia</text><rect class="bar" x="140" y="244.9" width="140.8" height="7.5" rx="2"/><text class="dval" x="600" y="251.8" text-anchor="end">7.0</text><text class="dname" x="128" y="266.8" text-anchor="end">Czechia</text><rect class="bar" x="140" y="259.9" width="118.0" height="7.5" rx="2"/><text class="dval" x="600" y="266.8" text-anchor="end">5.9</text><text class="dname" x="128" y="281.8" text-anchor="end">France</text><rect class="bar" x="140" y="274.9" width="117.6" height="7.5" rx="2"/><text class="dval" x="600" y="281.8" text-anchor="end">5.9</text><text class="dname" x="128" y="296.8" text-anchor="end">Montenegro</text><rect class="bar" x="140" y="289.9" width="112.2" height="7.5" rx="2"/><text class="dval" x="600" y="296.8" text-anchor="end">5.6</text><text class="dname" x="128" y="311.8" text-anchor="end">Turkey</text><rect class="bar" x="140" y="304.9" width="110.2" height="7.5" rx="2"/><text class="dval" x="600" y="311.8" text-anchor="end">5.5</text><text class="dname" x="128" y="326.8" text-anchor="end">Bosnia &amp; Herz.</text><rect class="bar" x="140" y="319.9" width="106.8" height="7.5" rx="2"/><text class="dval" x="600" y="326.8" text-anchor="end">5.3</text><text class="dname" x="128" y="341.8" text-anchor="end">Estonia</text><rect class="bar" x="140" y="334.9" width="103.8" height="7.5" rx="2"/><text class="dval" x="600" y="341.8" text-anchor="end">5.2</text><text class="dname" x="128" y="356.8" text-anchor="end">Italy</text><rect class="bar" x="140" y="349.9" width="101.0" height="7.5" rx="2"/><text class="dval" x="600" y="356.8" text-anchor="end">5.0</text><text class="dname" x="128" y="371.8" text-anchor="end">Lithuania</text><rect class="bar" x="140" y="364.9" width="97.2" height="7.5" rx="2"/><text class="dval" x="600" y="371.8" text-anchor="end">4.9</text><text class="dname" x="128" y="386.8" text-anchor="end">Cyprus</text><rect class="bar" x="140" y="379.9" width="93.4" height="7.5" rx="2"/><text class="dval" x="600" y="386.8" text-anchor="end">4.7</text><text class="dname" x="128" y="401.8" text-anchor="end">Latvia</text><rect class="bar" x="140" y="394.9" width="90.6" height="7.5" rx="2"/><text class="dval" x="600" y="401.8" text-anchor="end">4.5</text><text class="dname" x="128" y="416.8" text-anchor="end">Greece</text><rect class="bar" x="140" y="409.9" width="79.6" height="7.5" rx="2"/><text class="dval" x="600" y="416.8" text-anchor="end">4.0</text><text class="dname" x="128" y="431.8" text-anchor="end">Hungary</text><rect class="bar" x="140" y="424.9" width="73.6" height="7.5" rx="2"/><text class="dval" x="600" y="431.8" text-anchor="end">3.7</text><text class="dname" x="128" y="446.8" text-anchor="end">Albania ’21</text><rect class="bar" x="140" y="439.9" width="73.4" height="7.5" rx="2"/><text class="dval" x="600" y="446.8" text-anchor="end">3.7</text><text class="dname" x="128" y="461.8" text-anchor="end">Poland</text><rect class="bar" x="140" y="454.9" width="73.4" height="7.5" rx="2"/><text class="dval" x="600" y="461.8" text-anchor="end">3.7</text><text class="dname" x="128" y="476.8" text-anchor="end">Bulgaria</text><rect class="bar" x="140" y="469.9" width="72.4" height="7.5" rx="2"/><text class="dval" x="600" y="476.8" text-anchor="end">3.6</text><text class="dname" x="128" y="491.8" text-anchor="end">Serbia</text><rect class="bar" x="140" y="484.9" width="36.4" height="7.5" rx="2"/><text class="dval" x="600" y="491.8" text-anchor="end">1.8</text><text class="dname" x="128" y="506.8" text-anchor="end">Romania</text><rect class="bar" x="140" y="499.9" width="30.2" height="7.5" rx="2"/><text class="dval" x="600" y="506.8" text-anchor="end">1.5</text></svg>