<svg xmlns="http://www.w3.org/2000/svg" class="rankchart dotplot" viewBox="0 0 640 626" role="img" aria-label="Ranked dot plot of employment-weighted AI exposure by country, 36 countries, Sweden highlighted"><style>.rankchart{font-family:ui-monospace,Menlo,monospace}.grid,.rowguide{stroke:#e7e4dd}.rowguide{opacity:.6}.meanline{stroke:#8a8a8a;stroke-dasharray:3 3}.meanlab,.tick{fill:#6d6a63;font-size:9px}.dname{fill:#3f3d39;font-size:10px}.dname.se{fill:#0072b2;font-weight:700}.dot{fill:#9a9a9a}.dot.se{fill:#0072b2}.bar{fill:#9a9a9a}.bar.se{fill:#0072b2}.dval{fill:#6d6a63;font-size:9.5px}.dval.se{fill:#0072b2;font-weight:700}.ddelta{fill:#6d6a63;font-size:8.5px}</style><line class="grid" x1="175.0" y1="16" x2="175.0" y2="592"/><text class="tick" x="175.0" y="612" text-anchor="middle">1.7</text><line class="grid" x1="245.0" y1="16" x2="245.0" y2="592"/><text class="tick" x="245.0" y="612" text-anchor="middle">1.8</text><line class="grid" x1="315.0" y1="16" x2="315.0" y2="592"/><text class="tick" x="315.0" y="612" text-anchor="middle">1.9</text><line class="grid" x1="385.0" y1="16" x2="385.0" y2="592"/><text class="tick" x="385.0" y="612" text-anchor="middle">2.0</text><line class="grid" x1="455.0" y1="16" x2="455.0" y2="592"/><text class="tick" x="455.0" y="612" text-anchor="middle">2.1</text><line class="grid" x1="525.0" y1="16" x2="525.0" y2="592"/><text class="tick" x="525.0" y="612" text-anchor="middle">2.2</text><line class="meanline" x1="320.6" y1="15" x2="320.6" y2="592"/><text class="meanlab" x="320.6" y="12" text-anchor="middle">EU mean</text><line class="rowguide" x1="140" y1="22.9" x2="560" y2="22.9"/><text class="dname" x="128" y="25.9" text-anchor="end">Luxembourg</text><circle class="dot" cx="532.2" cy="22.9" r="3.1"/><text class="dval" x="600" y="25.9" text-anchor="end">2.21</text><line class="rowguide" x1="140" y1="38.9" x2="560" y2="38.9"/><text class="dname se" x="128" y="41.9" text-anchor="end">Sweden</text><circle class="dot se" cx="430.6" cy="38.9" r="4.4"/><text class="dval se" x="600" y="41.9" text-anchor="end">2.07</text><line class="rowguide" x1="140" y1="54.9" x2="560" y2="54.9"/><text class="dname" x="128" y="57.9" text-anchor="end">Netherlands</text><circle class="dot" cx="417.2" cy="54.9" r="3.1"/><text class="dval" x="600" y="57.9" text-anchor="end">2.05</text><line class="rowguide" x1="140" y1="70.9" x2="560" y2="70.9"/><text class="dname" x="128" y="73.9" text-anchor="end">Switzerland</text><circle class="dot" cx="400.9" cy="70.9" r="3.1"/><text class="dval" x="600" y="73.9" text-anchor="end">2.02</text><line class="rowguide" x1="140" y1="86.9" x2="560" y2="86.9"/><text class="dname" x="128" y="89.9" text-anchor="end">Belgium</text><circle class="dot" cx="385.8" cy="86.9" r="3.1"/><text class="dval" x="600" y="89.9" text-anchor="end">2.00</text><line class="rowguide" x1="140" y1="102.9" x2="560" y2="102.9"/><text class="dname" x="128" y="105.9" text-anchor="end">United Kingdom ’19</text><circle class="dot" cx="380.3" cy="102.9" r="3.1"/><text class="dval" x="600" y="105.9" text-anchor="end">1.99</text><line class="rowguide" x1="140" y1="118.9" x2="560" y2="118.9"/><text class="dname" x="128" y="121.9" text-anchor="end">Norway</text><circle class="dot" cx="374.4" cy="118.9" r="3.1"/><text class="dval" x="600" y="121.9" text-anchor="end">1.98</text><line class="rowguide" x1="140" y1="134.9" x2="560" y2="134.9"/><text class="dname" x="128" y="137.9" text-anchor="end">Denmark</text><circle class="dot" cx="366.7" cy="134.9" r="3.1"/><text class="dval" x="600" y="137.9" text-anchor="end">1.97</text><line class="rowguide" x1="140" y1="150.9" x2="560" y2="150.9"/><text class="dname" x="128" y="153.9" text-anchor="end">Ireland</text><circle class="dot" cx="366.1" cy="150.9" r="3.1"/><text class="dval" x="600" y="153.9" text-anchor="end">1.97</text><line class="rowguide" x1="140" y1="166.9" x2="560" y2="166.9"/><text class="dname" x="128" y="169.9" text-anchor="end">Germany</text><circle class="dot" cx="365.9" cy="166.9" r="3.1"/><text class="dval" x="600" y="169.9" text-anchor="end">1.97</text><line class="rowguide" x1="140" y1="182.9" x2="560" y2="182.9"/><text class="dname" x="128" y="185.9" text-anchor="end">Finland</text><circle class="dot" cx="355.7" cy="182.9" r="3.1"/><text class="dval" x="600" y="185.9" text-anchor="end">1.96</text><line class="rowguide" x1="140" y1="198.9" x2="560" y2="198.9"/><text class="dname" x="128" y="201.9" text-anchor="end">Iceland</text><circle class="dot" cx="351.9" cy="198.9" r="3.1"/><text class="dval" x="600" y="201.9" text-anchor="end">1.95</text><line class="rowguide" x1="140" y1="214.9" x2="560" y2="214.9"/><text class="dname" x="128" y="217.9" text-anchor="end">France</text><circle class="dot" cx="346.8" cy="214.9" r="3.1"/><text class="dval" x="600" y="217.9" text-anchor="end">1.95</text><line class="rowguide" x1="140" y1="230.9" x2="560" y2="230.9"/><text class="dname" x="128" y="233.9" text-anchor="end">Malta</text><circle class="dot" cx="345.6" cy="230.9" r="3.1"/><text class="dval" x="600" y="233.9" text-anchor="end">1.94</text><line class="rowguide" x1="140" y1="246.9" x2="560" y2="246.9"/><text class="dname" x="128" y="249.9" text-anchor="end">Cyprus</text><circle class="dot" cx="338.4" cy="246.9" r="3.1"/><text class="dval" x="600" y="249.9" text-anchor="end">1.93</text><line class="rowguide" x1="140" y1="262.9" x2="560" y2="262.9"/><text class="dname" x="128" y="265.9" text-anchor="end">Lithuania</text><circle class="dot" cx="336.7" cy="262.9" r="3.1"/><text class="dval" x="600" y="265.9" text-anchor="end">1.93</text><line class="rowguide" x1="140" y1="278.9" x2="560" y2="278.9"/><text class="dname" x="128" y="281.9" text-anchor="end">Austria</text><circle class="dot" cx="336.3" cy="278.9" r="3.1"/><text class="dval" x="600" y="281.9" text-anchor="end">1.93</text><line class="rowguide" x1="140" y1="294.9" x2="560" y2="294.9"/><text class="dname" x="128" y="297.9" text-anchor="end">Estonia</text><circle class="dot" cx="335.9" cy="294.9" r="3.1"/><text class="dval" x="600" y="297.9" text-anchor="end">1.93</text><line class="rowguide" x1="140" y1="310.9" x2="560" y2="310.9"/><text class="dname" x="128" y="313.9" text-anchor="end">Poland</text><circle class="dot" cx="320.4" cy="310.9" r="3.1"/><text class="dval" x="600" y="313.9" text-anchor="end">1.91</text><line class="rowguide" x1="140" y1="326.9" x2="560" y2="326.9"/><text class="dname" x="128" y="329.9" text-anchor="end">Portugal</text><circle class="dot" cx="303.8" cy="326.9" r="3.1"/><text class="dval" x="600" y="329.9" text-anchor="end">1.88</text><line class="rowguide" x1="140" y1="342.9" x2="560" y2="342.9"/><text class="dname" x="128" y="345.9" text-anchor="end">Latvia</text><circle class="dot" cx="301.9" cy="342.9" r="3.1"/><text class="dval" x="600" y="345.9" text-anchor="end">1.88</text><line class="rowguide" x1="140" y1="358.9" x2="560" y2="358.9"/><text class="dname" x="128" y="361.9" text-anchor="end">Slovenia</text><circle class="dot" cx="296.2" cy="358.9" r="3.1"/><text class="dval" x="600" y="361.9" text-anchor="end">1.87</text><line class="rowguide" x1="140" y1="374.9" x2="560" y2="374.9"/><text class="dname" x="128" y="377.9" text-anchor="end">Czechia</text><circle class="dot" cx="296.1" cy="374.9" r="3.1"/><text class="dval" x="600" y="377.9" text-anchor="end">1.87</text><line class="rowguide" x1="140" y1="390.9" x2="560" y2="390.9"/><text class="dname" x="128" y="393.9" text-anchor="end">Croatia</text><circle class="dot" cx="292.5" cy="390.9" r="3.1"/><text class="dval" x="600" y="393.9" text-anchor="end">1.87</text><line class="rowguide" x1="140" y1="406.9" x2="560" y2="406.9"/><text class="dname" x="128" y="409.9" text-anchor="end">Italy</text><circle class="dot" cx="291.1" cy="406.9" r="3.1"/><text class="dval" x="600" y="409.9" text-anchor="end">1.87</text><line class="rowguide" x1="140" y1="422.9" x2="560" y2="422.9"/><text class="dname" x="128" y="425.9" text-anchor="end">Slovakia</text><circle class="dot" cx="289.3" cy="422.9" r="3.1"/><text class="dval" x="600" y="425.9" text-anchor="end">1.86</text><line class="rowguide" x1="140" y1="438.9" x2="560" y2="438.9"/><text class="dname" x="128" y="441.9" text-anchor="end">Hungary</text><circle class="dot" cx="281.3" cy="438.9" r="3.1"/><text class="dval" x="600" y="441.9" text-anchor="end">1.85</text><line class="rowguide" x1="140" y1="454.9" x2="560" y2="454.9"/><text class="dname" x="128" y="457.9" text-anchor="end">Greece</text><circle class="dot" cx="274.8" cy="454.9" r="3.1"/><text class="dval" x="600" y="457.9" text-anchor="end">1.84</text><line class="rowguide" x1="140" y1="470.9" x2="560" y2="470.9"/><text class="dname" x="128" y="473.9" text-anchor="end">Montenegro ’20</text><circle class="dot" cx="274.4" cy="470.9" r="3.1"/><text class="dval" x="600" y="473.9" text-anchor="end">1.84</text><line class="rowguide" x1="140" y1="486.9" x2="560" y2="486.9"/><text class="dname" x="128" y="489.9" text-anchor="end">Spain</text><circle class="dot" cx="271.0" cy="486.9" r="3.1"/><text class="dval" x="600" y="489.9" text-anchor="end">1.84</text><line class="rowguide" x1="140" y1="502.9" x2="560" y2="502.9"/><text class="dname" x="128" y="505.9" text-anchor="end">N. Macedonia</text><circle class="dot" cx="246.2" cy="502.9" r="3.1"/><text class="dval" x="600" y="505.9" text-anchor="end">1.80</text><line class="rowguide" x1="140" y1="518.9" x2="560" y2="518.9"/><text class="dname" x="128" y="521.9" text-anchor="end">Serbia</text><circle class="dot" cx="246.1" cy="518.9" r="3.1"/><text class="dval" x="600" y="521.9" text-anchor="end">1.80</text><line class="rowguide" x1="140" y1="534.9" x2="560" y2="534.9"/><text class="dname" x="128" y="537.9" text-anchor="end">Bulgaria</text><circle class="dot" cx="242.7" cy="534.9" r="3.1"/><text class="dval" x="600" y="537.9" text-anchor="end">1.80</text><line class="rowguide" x1="140" y1="550.9" x2="560" y2="550.9"/><text class="dname" x="128" y="553.9" text-anchor="end">Bosnia &amp; Herz.</text><circle class="dot" cx="200.1" cy="550.9" r="3.1"/><text class="dval" x="600" y="553.9" text-anchor="end">1.74</text><line class="rowguide" x1="140" y1="566.9" x2="560" y2="566.9"/><text class="dname" x="128" y="569.9" text-anchor="end">Romania</text><circle class="dot" cx="185.1" cy="566.9" r="3.1"/><text class="dval" x="600" y="569.9" text-anchor="end">1.71</text><line class="rowguide" x1="140" y1="582.9" x2="560" y2="582.9"/><text class="dname" x="128" y="585.9" text-anchor="end">Turkey</text><circle class="dot" cx="162.5" cy="582.9" r="3.1"/><text class="dval" x="600" y="585.9" text-anchor="end">1.68</text></svg>