<svg xmlns="http://www.w3.org/2000/svg" class="rankchart squeeze" viewBox="0 0 640 292" role="img" aria-label="Entry-level share of job openings in least- versus most-AI-exposed occupations, 2020 to 2025, with a widening gap"><style>.rankchart{font-family:ui-monospace,Menlo,monospace}svg{background:#ffffff}.grid,.rowguide{stroke:#e7e4dd}.rowguide{opacity:.6}.meanline{stroke:#8a8a8a;stroke-dasharray:3 3}.meanlab,.tick{fill:#6d6a63;font-size:9px}.dname{fill:#3f3d39;font-size:10px}.dname.se{fill:#0072b2;font-weight:700}.dot{fill:#9a9a9a}.dot.se{fill:#0072b2}.bar{fill:#9a9a9a}.bar.se{fill:#0072b2}.dval{fill:#6d6a63;font-size:9.5px}.dval.se{fill:#0072b2;font-weight:700}.ddelta{fill:#6d6a63;font-size:8.5px}.trendarea{fill:#0072b2;opacity:.08}.trendline,.trenddash{fill:none;stroke:#0072b2;stroke-width:2}.trenddash{stroke-dasharray:4 3}.trenddot{fill:#0072b2}.trendval{fill:#0072b2;font-size:11px;font-weight:700}.sqband{fill:#0072b2;opacity:.10}.sqlo{fill:none;stroke:#9a9a9a;stroke-width:2}.sqhi{fill:none;stroke:#0072b2;stroke-width:2.6}.sqdot.lo{fill:#9a9a9a}.sqdot.hi{fill:#0072b2}.sqval{font-size:11px;font-weight:700}.sqval.lo{fill:#9a9a9a}.sqval.hi{fill:#0072b2}.dumb{display:block}.dbtrack{stroke:#d9d5cd;stroke-width:3}.dblo{fill:#9a9a9a}.dbhi{fill:#0072b2}</style><line class="grid" x1="60" y1="250.0" x2="540" y2="250.0"/><text class="tick" x="52" y="253.5" text-anchor="end">0%</text><line class="grid" x1="60" y1="184.9" x2="540" y2="184.9"/><text class="tick" x="52" y="188.4" text-anchor="end">10%</text><line class="grid" x1="60" y1="119.7" x2="540" y2="119.7"/><text class="tick" x="52" y="123.2" text-anchor="end">20%</text><line class="grid" x1="60" y1="54.6" x2="540" y2="54.6"/><text class="tick" x="52" y="58.1" text-anchor="end">30%</text><text class="tick" x="60.0" y="280" text-anchor="middle">2020</text><text class="tick" x="156.0" y="280" text-anchor="middle">2021</text><text class="tick" x="252.0" y="280" text-anchor="middle">2022</text><text class="tick" x="348.0" y="280" text-anchor="middle">2023</text><text class="tick" x="444.0" y="280" text-anchor="middle">2024</text><text class="tick" x="540.0" y="280" text-anchor="middle">2025</text><polygon class="sqband" points="60.0,124.9 156.0,95.0 252.0,87.1 348.0,102.1 444.0,69.6 540.0,32.4 540.0,67.6 444.0,93.0 348.0,115.8 252.0,108.6 156.0,116.5 60.0,145.1"/><polyline class="sqlo" points="60.0,124.9 156.0,95.0 252.0,87.1 348.0,102.1 444.0,69.6 540.0,32.4"/><polyline class="sqhi" points="60.0,145.1 156.0,116.5 252.0,108.6 348.0,115.8 444.0,93.0 540.0,67.6"/><circle class="sqdot lo" cx="60.0" cy="124.9" r="2.7"/><circle class="sqdot hi" cx="60.0" cy="145.1" r="2.7"/><circle class="sqdot lo" cx="156.0" cy="95.0" r="2.7"/><circle class="sqdot hi" cx="156.0" cy="116.5" r="2.7"/><circle class="sqdot lo" cx="252.0" cy="87.1" r="2.7"/><circle class="sqdot hi" cx="252.0" cy="108.6" r="2.7"/><circle class="sqdot lo" cx="348.0" cy="102.1" r="2.7"/><circle class="sqdot hi" cx="348.0" cy="115.8" r="2.7"/><circle class="sqdot lo" cx="444.0" cy="69.6" r="2.7"/><circle class="sqdot hi" cx="444.0" cy="93.0" r="2.7"/><circle class="sqdot lo" cx="540.0" cy="32.4" r="2.7"/><circle class="sqdot hi" cx="540.0" cy="67.6" r="2.7"/><text class="sqval lo" x="548.0" y="35.4">33%</text><text class="sqval hi" x="548.0" y="70.6">28%</text></svg>