<svg xmlns="http://www.w3.org/2000/svg" class="rankchart jobq" viewBox="0 0 640 300" role="img" aria-label="Gap in percentage points between AI-skill job ads and all other ads on full-time, permanent and regular employment, 2018 to 2025"><style>:root{--c1:#0072b2;--c2:#d55e00;--c3:#009e73;--ink:#161d2b}.rankchart{font-family:ui-monospace,Menlo,monospace}svg{background:#ffffff}.grid,.rowguide{stroke:#e7e4dd}.rowguide{opacity:.6}.meanline{stroke:#8a8a8a;stroke-dasharray:3 3}.meanlab,.tick{fill:#6d6a63;font-size:9px}.dname{fill:#3f3d39;font-size:10px}.dname.se{fill:#0072b2;font-weight:700}.dot{fill:#9a9a9a}.dot.se{fill:#0072b2}.bar{fill:#9a9a9a}.bar.se{fill:#0072b2}.dval{fill:#6d6a63;font-size:9.5px}.dval.se{fill:#0072b2;font-weight:700}.ddelta{fill:#6d6a63;font-size:8.5px}.trendarea{fill:#0072b2;opacity:.08}.trendline,.trenddash{fill:none;stroke:#0072b2;stroke-width:2}.trenddash{stroke-dasharray:4 3}.trenddot{fill:#0072b2}.trendval{fill:#0072b2;font-size:11px;font-weight:700}.sqband{fill:#0072b2;opacity:.10}.sqlo{fill:none;stroke:#9a9a9a;stroke-width:2}.sqhi{fill:none;stroke:#0072b2;stroke-width:2.6}.sqdot.lo{fill:#9a9a9a}.sqdot.hi{fill:#0072b2}.sqval{font-size:11px;font-weight:700}.sqval.lo{fill:#9a9a9a}.sqval.hi{fill:#0072b2}.dumb{display:block}.dbtrack{stroke:#d9d5cd;stroke-width:3}.dblo{fill:#9a9a9a}.dbhi{fill:#0072b2}</style><line class="grid" x1="52" y1="277.0" x2="522" y2="277.0"/><text class="tick" x="45" y="280.5" text-anchor="end">-10</text><line class="grid" x1="52" y1="238.7" x2="522" y2="238.7"/><text class="tick" x="45" y="242.2" text-anchor="end">-5</text><line class="grid" x1="52" y1="200.3" x2="522" y2="200.3"/><text class="tick" x="45" y="203.8" text-anchor="end">0</text><line class="grid" x1="52" y1="162.0" x2="522" y2="162.0"/><text class="tick" x="45" y="165.5" text-anchor="end">+5</text><line class="grid" x1="52" y1="123.7" x2="522" y2="123.7"/><text class="tick" x="45" y="127.2" text-anchor="end">+10</text><line class="grid" x1="52" y1="85.3" x2="522" y2="85.3"/><text class="tick" x="45" y="88.8" text-anchor="end">+15</text><line class="grid" x1="52" y1="47.0" x2="522" y2="47.0"/><text class="tick" x="45" y="50.5" text-anchor="end">+20</text><line x1="52" y1="200.3" x2="522" y2="200.3" stroke="var(--ink)" stroke-width="1.4" opacity=".55"/><text class="tick" x="52.0" y="290" text-anchor="middle">2018</text><text class="tick" x="119.1" y="290" text-anchor="middle">2019</text><text class="tick" x="186.3" y="290" text-anchor="middle">2020</text><text class="tick" x="253.4" y="290" text-anchor="middle">2021</text><text class="tick" x="320.6" y="290" text-anchor="middle">2022</text><text class="tick" x="387.7" y="290" text-anchor="middle">2023</text><text class="tick" x="454.9" y="290" text-anchor="middle">2024</text><text class="tick" x="522.0" y="290" text-anchor="middle">2025</text><polyline points="52.0,42.6 119.1,54.7 186.3,70.9 253.4,87.5 320.6,92.1 387.7,143.8 454.9,138.5 522.0,123.1" fill="none" stroke="var(--c1)" stroke-width="2.4"/><circle cx="522.0" cy="123.1" r="3.5" fill="var(--c1)"/><text class="tick" x="529.0" y="126.6" text-anchor="start" fill="var(--c1)">full-time +10</text><polyline points="52.0,170.6 119.1,138.3 186.3,164.1 253.4,144.8 320.6,176.9 387.7,223.9 454.9,218.2 522.0,244.8" fill="none" stroke="var(--c2)" stroke-width="2.4"/><circle cx="522.0" cy="244.8" r="3.5" fill="var(--c2)"/><text class="tick" x="529.0" y="248.3" text-anchor="start" fill="var(--c2)">permanent -6</text><polyline points="52.0,161.8 119.1,156.1 186.3,151.8 253.4,151.7 320.6,159.6 387.7,184.7 454.9,203.1 522.0,186.1" fill="none" stroke="var(--c3)" stroke-width="2.4"/><circle cx="522.0" cy="186.1" r="3.5" fill="var(--c3)"/><text class="tick" x="529.0" y="189.6" text-anchor="start" fill="var(--c3)">regular +2</text></svg>