<svg xmlns="http://www.w3.org/2000/svg" class="rankchart barplot" viewBox="0 0 640 232" role="img" aria-label="Ranked bar chart, 12 countries, latest value with change since the previous wave"><style>:root{--c1:#0072b2;--c2:#d55e00;--c3:#009e73;--c4:#cc79a7;--ink:#161d2b}.rankchart{font-family:ui-monospace,Menlo,monospace}svg{background:#ffffff}.grid,.rowguide{stroke:#e7e4dd}.rowguide{opacity:.6}.meanline{stroke:#8a8a8a;stroke-dasharray:3 3}.meanlab,.tick{fill:#6d6a63;font-size:9px}.dname{fill:#3f3d39;font-size:10px}.dname.se{fill:#0072b2;font-weight:700}.dot{fill:#9a9a9a}.dot.se{fill:#0072b2}.bar{fill:#9a9a9a}.bar.se{fill:#0072b2}.dval{fill:#6d6a63;font-size:9.5px}.dval.se{fill:#0072b2;font-weight:700}.ddelta{fill:#6d6a63;font-size:8.5px}.trendarea{fill:#0072b2;opacity:.08}.trendline,.trenddash{fill:none;stroke:#0072b2;stroke-width:2}.trenddash{stroke-dasharray:4 3}.trenddot{fill:#0072b2}.trendval{fill:#0072b2;font-size:11px;font-weight:700}.sqband{fill:#0072b2;opacity:.10}.sqlo{fill:none;stroke:#009e73;stroke-width:2}.sqhi{fill:none;stroke:#0072b2;stroke-width:2.6}.sqdot.lo{fill:#009e73}.sqdot.hi{fill:#0072b2}.sqval{font-size:11px;font-weight:700}.sqval.lo{fill:#009e73}.sqval.hi{fill:#0072b2}.dumb{display:block}.dbtrack{stroke:#d9d5cd;stroke-width:3}.dblo{fill:#009e73}.dbhi{fill:#0072b2}.figttl{fill:#161d2b;font-size:12px;font-weight:700}.figsrc{fill:#6d6a63;font-size:8.5px}</style><line class="grid" x1="245.0" y1="18" x2="245.0" y2="198"/><text class="tick" x="245.0" y="219" text-anchor="middle">0%</text><line class="grid" x1="339.3" y1="18" x2="339.3" y2="198"/><text class="tick" x="339.3" y="219" text-anchor="middle">5%</text><line class="grid" x1="433.7" y1="18" x2="433.7" y2="198"/><text class="tick" x="433.7" y="219" text-anchor="middle">10%</text><line class="grid" x1="528.0" y1="18" x2="528.0" y2="198"/><text class="tick" x="528.0" y="219" text-anchor="middle">15%</text><line class="meanline" x1="255.4" y1="17" x2="255.4" y2="198"/><text class="meanlab" x="255.4" y="13" text-anchor="middle">Sweden 0.55</text><text class="dname" x="233" y="28.8" text-anchor="end">Doctoral students</text><rect class="bar" x="245" y="21.9" width="282.4" height="7.5" rx="2"/><text class="dval" x="574" y="28.8" text-anchor="end">15.0</text><text class="dname" x="233" y="43.8" text-anchor="end">Research assistants</text><rect class="bar" x="245" y="36.9" width="217.7" height="7.5" rx="2"/><text class="dval" x="574" y="43.8" text-anchor="end">11.5</text><text class="dname" x="233" y="58.8" text-anchor="end">Other IT specialists</text><rect class="bar" x="245" y="51.9" width="178.7" height="7.5" rx="2"/><text class="dval" x="574" y="58.8" text-anchor="end">9.5</text><text class="dname" x="233" y="73.8" text-anchor="end">Software and systems developers</text><rect class="bar" x="245" y="66.9" width="102.6" height="7.5" rx="2"/><text class="dval" x="574" y="73.8" text-anchor="end">5.4</text><text class="dname" x="233" y="88.8" text-anchor="end">University lecturers</text><rect class="bar" x="245" y="81.9" width="93.2" height="7.5" rx="2"/><text class="dval" x="574" y="88.8" text-anchor="end">4.9</text><text class="dname" x="233" y="103.8" text-anchor="end">Electrical engineers and technicians</text><rect class="bar" x="245" y="96.9" width="71.9" height="7.5" rx="2"/><text class="dval" x="574" y="103.8" text-anchor="end">3.8</text><text class="dname" x="233" y="118.8" text-anchor="end">Chemists</text><rect class="bar" x="245" y="111.9" width="70.2" height="7.5" rx="2"/><text class="dval" x="574" y="118.8" text-anchor="end">3.7</text><text class="dname" x="233" y="133.8" text-anchor="end">Systems analysts and IT architects</text><rect class="bar" x="245" y="126.9" width="59.6" height="7.5" rx="2"/><text class="dval" x="574" y="133.8" text-anchor="end">3.2</text><text class="dname" x="233" y="148.8" text-anchor="end">Cell and molecular biologists</text><rect class="bar" x="245" y="141.9" width="54.1" height="7.5" rx="2"/><text class="dval" x="574" y="148.8" text-anchor="end">2.9</text><text class="dname" x="233" y="163.8" text-anchor="end">Registered nurses</text><rect class="bar" x="245" y="156.9" width="1.5" height="7.5" rx="2"/><text class="dval" x="574" y="163.8" text-anchor="end">0.0</text><text class="dname" x="233" y="178.8" text-anchor="end">Personal care assistants</text><rect class="bar" x="245" y="171.9" width="1.5" height="7.5" rx="2"/><text class="dval" x="574" y="178.8" text-anchor="end">0.0</text><text class="dname" x="233" y="193.8" text-anchor="end"><title>Assistant nurses, home care, home nursing, elderly care and habilitation</title>Assistant nurses, home care etc.</text><rect class="bar" x="245" y="186.9" width="1.5" height="7.5" rx="2"/><text class="dval" x="574" y="193.8" text-anchor="end">0.0</text></svg>