<svg xmlns="http://www.w3.org/2000/svg" class="rankchart barplot" viewBox="0 0 640 142" role="img" aria-label="Ranked bar chart, 6 age groups, latest value with change since the previous wave"><style>:root{--c1:#0072b2;--c2:#d55e00;--ink:#161d2b}.rankchart{font-family:ui-monospace,Menlo,monospace}svg{background:#ffffff}.grid,.rowguide{stroke:#e7e4dd}.rowguide{opacity:.6}.meanline{stroke:#8a8a8a;stroke-dasharray:3 3}.meanlab,.tick{fill:#6d6a63;font-size:9px}.dname{fill:#3f3d39;font-size:10px}.dname.se{fill:#0072b2;font-weight:700}.dot{fill:#9a9a9a}.dot.se{fill:#0072b2}.bar{fill:#9a9a9a}.bar.se{fill:#0072b2}.dval{fill:#6d6a63;font-size:9.5px}.dval.se{fill:#0072b2;font-weight:700}.ddelta{fill:#6d6a63;font-size:8.5px}.trendarea{fill:#0072b2;opacity:.08}.trendline,.trenddash{fill:none;stroke:#0072b2;stroke-width:2}.trenddash{stroke-dasharray:4 3}.trenddot{fill:#0072b2}.trendval{fill:#0072b2;font-size:11px;font-weight:700}.sqband{fill:#0072b2;opacity:.10}.sqlo{fill:none;stroke:#9a9a9a;stroke-width:2}.sqhi{fill:none;stroke:#0072b2;stroke-width:2.6}.sqdot.lo{fill:#9a9a9a}.sqdot.hi{fill:#0072b2}.sqval{font-size:11px;font-weight:700}.sqval.lo{fill:#9a9a9a}.sqval.hi{fill:#0072b2}.dumb{display:block}.dbtrack{stroke:#d9d5cd;stroke-width:3}.dblo{fill:#9a9a9a}.dbhi{fill:#0072b2}</style><line class="grid" x1="140.0" y1="18" x2="140.0" y2="108"/><text class="tick" x="140.0" y="129" text-anchor="middle">0%</text><line class="grid" x1="195.4" y1="18" x2="195.4" y2="108"/><text class="tick" x="195.4" y="129" text-anchor="middle">10%</text><line class="grid" x1="250.9" y1="18" x2="250.9" y2="108"/><text class="tick" x="250.9" y="129" text-anchor="middle">20%</text><line class="grid" x1="306.3" y1="18" x2="306.3" y2="108"/><text class="tick" x="306.3" y="129" text-anchor="middle">30%</text><line class="grid" x1="361.7" y1="18" x2="361.7" y2="108"/><text class="tick" x="361.7" y="129" text-anchor="middle">40%</text><line class="grid" x1="417.1" y1="18" x2="417.1" y2="108"/><text class="tick" x="417.1" y="129" text-anchor="middle">50%</text><line class="grid" x1="472.6" y1="18" x2="472.6" y2="108"/><text class="tick" x="472.6" y="129" text-anchor="middle">60%</text><line class="grid" x1="528.0" y1="18" x2="528.0" y2="108"/><text class="tick" x="528.0" y="129" text-anchor="middle">70%</text><line class="meanline" x1="372.8" y1="17" x2="372.8" y2="108"/><text class="meanlab" x="372.8" y="13" text-anchor="middle">EU 42</text><text class="dname" x="128" y="28.8" text-anchor="end">16–24</text><rect class="bar" x="140" y="21.9" width="371.4" height="7.5" rx="2"/><text class="dval" x="574" y="28.8" text-anchor="end">67</text><text class="ddelta" x="632" y="28.8" text-anchor="end">+12</text><text class="dname" x="128" y="43.8" text-anchor="end">25–34</text><rect class="bar" x="140" y="36.9" width="321.5" height="7.5" rx="2"/><text class="dval" x="574" y="43.8" text-anchor="end">58</text><text class="ddelta" x="632" y="43.8" text-anchor="end">+18</text><text class="dname" x="128" y="58.8" text-anchor="end">35–44</text><rect class="bar" x="140" y="51.9" width="271.6" height="7.5" rx="2"/><text class="dval" x="574" y="58.8" text-anchor="end">49</text><text class="ddelta" x="632" y="58.8" text-anchor="end">+16</text><text class="dname" x="128" y="73.8" text-anchor="end">45–54</text><rect class="bar" x="140" y="66.9" width="238.3" height="7.5" rx="2"/><text class="dval" x="574" y="73.8" text-anchor="end">43</text><text class="ddelta" x="632" y="73.8" text-anchor="end">+20</text><text class="dname" x="128" y="88.8" text-anchor="end">55–64</text><rect class="bar" x="140" y="81.9" width="127.5" height="7.5" rx="2"/><text class="dval" x="574" y="88.8" text-anchor="end">23</text><text class="ddelta" x="632" y="88.8" text-anchor="end">+12</text><text class="dname" x="128" y="103.8" text-anchor="end">65–74</text><rect class="bar" x="140" y="96.9" width="38.8" height="7.5" rx="2"/><text class="dval" x="574" y="103.8" text-anchor="end">7</text><text class="ddelta" x="632" y="103.8" text-anchor="end">+3</text></svg>