<svg xmlns="http://www.w3.org/2000/svg" class="rankchart barplot" viewBox="0 0 640 112" role="img" aria-label="Ranked bar chart of firms using AI by country, 4 countries, Sweden highlighted"><style>.rankchart{font-family:ui-monospace,Menlo,monospace}svg{background:#ffffff}.grid,.rowguide{stroke:#e7e4dd}.rowguide{opacity:.6}.meanline{stroke:#8a8a8a;stroke-dasharray:3 3}.meanlab,.tick{fill:#6d6a63;font-size:9px}.dname{fill:#3f3d39;font-size:10px}.dname.se{fill:#0072b2;font-weight:700}.dot{fill:#9a9a9a}.dot.se{fill:#0072b2}.bar{fill:#9a9a9a}.bar.se{fill:#0072b2}.dval{fill:#6d6a63;font-size:9.5px}.dval.se{fill:#0072b2;font-weight:700}.ddelta{fill:#6d6a63;font-size:8.5px}.trendarea{fill:#0072b2;opacity:.08}.trendline,.trenddash{fill:none;stroke:#0072b2;stroke-width:2}.trenddash{stroke-dasharray:4 3}.trenddot{fill:#0072b2}.trendval{fill:#0072b2;font-size:11px;font-weight:700}.sqband{fill:#0072b2;opacity:.10}.sqlo{fill:none;stroke:#9a9a9a;stroke-width:2}.sqhi{fill:none;stroke:#0072b2;stroke-width:2.6}.sqdot.lo{fill:#9a9a9a}.sqdot.hi{fill:#0072b2}.sqval{font-size:11px;font-weight:700}.sqval.lo{fill:#9a9a9a}.sqval.hi{fill:#0072b2}.dumb{display:block}.dbtrack{stroke:#d9d5cd;stroke-width:3}.dblo{fill:#9a9a9a}.dbhi{fill:#0072b2}</style><line class="grid" x1="140.0" y1="18" x2="140.0" y2="78"/><text class="tick" x="140.0" y="99" text-anchor="middle">0%</text><line class="grid" x1="188.5" y1="18" x2="188.5" y2="78"/><text class="tick" x="188.5" y="99" text-anchor="middle">10%</text><line class="grid" x1="237.0" y1="18" x2="237.0" y2="78"/><text class="tick" x="237.0" y="99" text-anchor="middle">20%</text><line class="grid" x1="285.5" y1="18" x2="285.5" y2="78"/><text class="tick" x="285.5" y="99" text-anchor="middle">30%</text><line class="grid" x1="334.0" y1="18" x2="334.0" y2="78"/><text class="tick" x="334.0" y="99" text-anchor="middle">40%</text><line class="grid" x1="382.5" y1="18" x2="382.5" y2="78"/><text class="tick" x="382.5" y="99" text-anchor="middle">50%</text><line class="grid" x1="431.0" y1="18" x2="431.0" y2="78"/><text class="tick" x="431.0" y="99" text-anchor="middle">60%</text><line class="grid" x1="479.5" y1="18" x2="479.5" y2="78"/><text class="tick" x="479.5" y="99" text-anchor="middle">70%</text><line class="grid" x1="528.0" y1="18" x2="528.0" y2="78"/><text class="tick" x="528.0" y="99" text-anchor="middle">80%</text><line class="meanline" x1="236.5" y1="17" x2="236.5" y2="78"/><text class="meanlab" x="236.5" y="13" text-anchor="middle">EU 19.9</text><text class="dname" x="128" y="28.8" text-anchor="end">250+ employees</text><rect class="bar" x="140" y="21.9" width="349.2" height="7.5" rx="2"/><text class="dval" x="574" y="28.8" text-anchor="end">72</text><text class="ddelta" x="632" y="28.8" text-anchor="end">+32</text><text class="dname" x="128" y="43.8" text-anchor="end">50–249 employees</text><rect class="bar" x="140" y="36.9" width="242.5" height="7.5" rx="2"/><text class="dval" x="574" y="43.8" text-anchor="end">50</text><text class="ddelta" x="632" y="43.8" text-anchor="end">+32</text><text class="dname se" x="128" y="58.8" text-anchor="end">All firms (10+)</text><rect class="bar se" x="140" y="51.9" width="169.8" height="7.5" rx="2"/><text class="dval se" x="574" y="58.8" text-anchor="end">35</text><text class="dname" x="128" y="73.8" text-anchor="end">10–49 employees</text><rect class="bar" x="140" y="66.9" width="150.4" height="7.5" rx="2"/><text class="dval" x="574" y="73.8" text-anchor="end">31</text><text class="ddelta" x="632" y="73.8" text-anchor="end">+23</text></svg>