<svg xmlns="http://www.w3.org/2000/svg" class="rankchart squeeze" viewBox="0 0 640 325" role="img" aria-label="Median wage by AI-exposure tercile, United States · median annual wage, indexed to 100 in 2015"><style>:root{--c1:#0072b2;--c2:#d55e00;--c3:#009e73;--c4:#cc79a7;--ink:#161d2b}.rankchart{font-family:ui-monospace,Menlo,monospace}svg{background:#ffffff}.grid,.rowguide{stroke:#e7e4dd}.rowguide{opacity:.6}.meanline{stroke:#8a8a8a;stroke-dasharray:3 3}.meanlab,.tick{fill:#6d6a63;font-size:9px}.dname{fill:#3f3d39;font-size:10px}.dname.se{fill:#0072b2;font-weight:700}.dot{fill:#9a9a9a}.dot.se{fill:#0072b2}.bar{fill:#9a9a9a}.bar.se{fill:#0072b2}.dval{fill:#6d6a63;font-size:9.5px}.dval.se{fill:#0072b2;font-weight:700}.ddelta{fill:#6d6a63;font-size:8.5px}.trendarea{fill:#0072b2;opacity:.08}.trendline,.trenddash{fill:none;stroke:#0072b2;stroke-width:2}.trenddash{stroke-dasharray:4 3}.trenddot{fill:#0072b2}.trendval{fill:#0072b2;font-size:11px;font-weight:700}.trendcov{fill:#6d6a63;font-size:9px}.sqband{fill:#0072b2;opacity:.10}.sqlo{fill:none;stroke:#009e73;stroke-width:2}.sqhi{fill:none;stroke:#0072b2;stroke-width:2.6}.sqdot.lo{fill:#009e73}.sqdot.hi{fill:#0072b2}.sqval{font-size:11px;font-weight:700}.sqval.lo{fill:#009e73}.sqval.hi{fill:#0072b2}.dumb{display:block}.dbtrack{stroke:#d9d5cd;stroke-width:3}.dblo{fill:#009e73}.dbhi{fill:#0072b2}.figttl{fill:#161d2b;font-size:12px;font-weight:700}.figsrc{fill:#6d6a63;font-size:8.5px}</style><line class="grid" x1="60" y1="250.0" x2="560" y2="250.0"/><text class="tick" x="54" y="253.5" text-anchor="end">90</text><line class="grid" x1="60" y1="174.0" x2="560" y2="174.0"/><text class="tick" x="54" y="177.5" text-anchor="end">100</text><line class="grid" x1="60" y1="98.0" x2="560" y2="98.0"/><text class="tick" x="54" y="101.5" text-anchor="end">110</text><line class="grid" x1="60" y1="22.0" x2="560" y2="22.0"/><text class="tick" x="54" y="25.5" text-anchor="end">120</text><text class="tick" x="110.0" y="284" text-anchor="middle">2016</text><text class="tick" x="210.0" y="284" text-anchor="middle">2018</text><text class="tick" x="310.0" y="284" text-anchor="middle">2020</text><text class="tick" x="410.0" y="284" text-anchor="middle">2022</text><text class="tick" x="510.0" y="284" text-anchor="middle">2024</text><text class="tick" x="560.0" y="284" text-anchor="middle">2025</text><polyline points="60.0,174.0 110.0,159.6 160.0,152.0 210.0,149.7 260.0,137.5 310.0,99.5 360.0,110.2 410.0,138.3 460.0,120.0 510.0,110.9 560.0,109.4" fill="none" stroke="var(--c3)" stroke-width="2.2"/><text class="tick" x="565" y="109.4" fill="var(--c3)">108</text><text class="tick" x="565" y="119.4" fill="var(--c3)" style="font-size:9px">least</text><polyline points="60.0,174.0 110.0,160.3 160.0,154.2 210.0,150.4 260.0,139.8 310.0,90.4 360.0,100.3 410.0,125.4 460.0,113.2 510.0,103.3 560.0,93.4" fill="none" stroke="var(--c4, #cc79a7)" stroke-width="2.2"/><text class="tick" x="565" y="93.4" fill="var(--c4, #cc79a7)">111</text><text class="tick" x="565" y="103.4" fill="var(--c4, #cc79a7)" style="font-size:9px">mid</text><polyline points="60.0,174.0 110.0,164.1 160.0,164.1 210.0,166.4 260.0,158.8 310.0,129.2 360.0,152.7 410.0,183.9 460.0,167.9 510.0,162.6 560.0,148.2" fill="none" stroke="var(--c2)" stroke-width="2.2"/><text class="tick" x="565" y="148.2" fill="var(--c2)">103</text><text class="tick" x="565" y="158.2" fill="var(--c2)" style="font-size:9px">most</text><text class="figttl" x="8" y="306">Median wage by AI-exposure tercile, United States · median annual wage</text><text class="figsrc" x="8" y="319">BLS OEWS national, detailed SOC, May 2015–May 2025; 692 occupations, employment-weighted · AI-Econ Lab</text></svg>