<svg xmlns="http://www.w3.org/2000/svg" class="rankchart dumb on" data-g="all" viewBox="0 0 640 238" role="img" aria-label="Working conditions in least- vs most-AI-exposed occupations, all"><style>.rankchart{font-family:ui-monospace,Menlo,monospace}svg{background:#ffffff}.grid,.rowguide{stroke:#e7e4dd}.rowguide{opacity:.6}.meanline{stroke:#8a8a8a;stroke-dasharray:3 3}.meanlab,.tick{fill:#6d6a63;font-size:9px}.dname{fill:#3f3d39;font-size:10px}.dname.se{fill:#0072b2;font-weight:700}.dot{fill:#9a9a9a}.dot.se{fill:#0072b2}.bar{fill:#9a9a9a}.bar.se{fill:#0072b2}.dval{fill:#6d6a63;font-size:9.5px}.dval.se{fill:#0072b2;font-weight:700}.ddelta{fill:#6d6a63;font-size:8.5px}.trendarea{fill:#0072b2;opacity:.08}.trendline,.trenddash{fill:none;stroke:#0072b2;stroke-width:2}.trenddash{stroke-dasharray:4 3}.trenddot{fill:#0072b2}.trendval{fill:#0072b2;font-size:11px;font-weight:700}.sqband{fill:#0072b2;opacity:.10}.sqlo{fill:none;stroke:#9a9a9a;stroke-width:2}.sqhi{fill:none;stroke:#0072b2;stroke-width:2.6}.sqdot.lo{fill:#9a9a9a}.sqdot.hi{fill:#0072b2}.sqval{font-size:11px;font-weight:700}.sqval.lo{fill:#9a9a9a}.sqval.hi{fill:#0072b2}.dumb{display:block}.dbtrack{stroke:#d9d5cd;stroke-width:3}.dblo{fill:#9a9a9a}.dbhi{fill:#0072b2}</style><line class="grid" x1="205.0" y1="16" x2="205.0" y2="206"/><text class="tick" x="205.0" y="225" text-anchor="middle">0%</text><line class="grid" x1="292.8" y1="16" x2="292.8" y2="206"/><text class="tick" x="292.8" y="225" text-anchor="middle">25%</text><line class="grid" x1="380.5" y1="16" x2="380.5" y2="206"/><text class="tick" x="380.5" y="225" text-anchor="middle">50%</text><line class="grid" x1="468.2" y1="16" x2="468.2" y2="206"/><text class="tick" x="468.2" y="225" text-anchor="middle">75%</text><line class="grid" x1="556.0" y1="16" x2="556.0" y2="206"/><text class="tick" x="556.0" y="225" text-anchor="middle">100%</text><text class="dname" x="192" y="38.5" text-anchor="end">Mentally strenuous work</text><line class="dbtrack" x1="387.5" y1="35.0" x2="425.8" y2="35.0"/><circle class="dblo" cx="387.5" cy="35.0" r="4"/><circle class="dbhi" cx="425.8" cy="35.0" r="5.5"/><text class="dval" x="632" y="38.5" text-anchor="end">52→63</text><text class="dname" x="192" y="76.5" text-anchor="end">Can influence own work</text><line class="dbtrack" x1="433.5" y1="73.0" x2="471.1" y2="73.0"/><circle class="dblo" cx="433.5" cy="73.0" r="4"/><circle class="dbhi" cx="471.1" cy="73.0" r="5.5"/><text class="dval" x="632" y="76.5" text-anchor="end">65→76</text><text class="dname" x="192" y="114.5" text-anchor="end">Can&#x27;t switch off after work</text><line class="dbtrack" x1="294.2" y1="111.0" x2="320.5" y2="111.0"/><circle class="dblo" cx="294.2" cy="111.0" r="4"/><circle class="dbhi" cx="320.5" cy="111.0" r="5.5"/><text class="dval" x="632" y="114.5" text-anchor="end">25→33</text><text class="dname" x="192" y="152.5" text-anchor="end">Negative view of technology</text><line class="dbtrack" x1="250.6" y1="149.0" x2="236.2" y2="149.0"/><circle class="dblo" cx="250.6" cy="149.0" r="4"/><circle class="dbhi" cx="236.2" cy="149.0" r="5.5"/><text class="dval" x="632" y="152.5" text-anchor="end">13→9</text><text class="dname" x="192" y="190.5" text-anchor="end">Work feels meaningful</text><line class="dbtrack" x1="511.8" y1="187.0" x2="526.2" y2="187.0"/><circle class="dblo" cx="511.8" cy="187.0" r="4"/><circle class="dbhi" cx="526.2" cy="187.0" r="5.5"/><text class="dval" x="632" y="190.5" text-anchor="end">87→92</text></svg>